<!-- Generator: Adobe Illustrator 19.0.0, SVG Export Plug-In  -->
<svg version="1.1"
	 xmlns="http://www.w3.org/2000/svg" xmlns:xlink="http://www.w3.org/1999/xlink" xmlns:a="http://ns.adobe.com/AdobeSVGViewerExtensions/3.0/"
	 x="0px" y="0px" width="423.2px" height="256.8px" viewBox="0 0 423.2 256.8" style="enable-background:new 0 0 423.2 256.8;"
	 xml:space="preserve">
<style type="text/css">
	.st0{fill:#E8DACA;}
	.st1{fill:#C99727;}
	.st2{fill:#DBA82A;}
	.st3{fill:#EFE4E4;}
	.st4{fill:#C6962A;}
	.st5{fill:#FDCD3C;}
	.st6{fill:#8AB7BB;}
	.st7{fill:#F2D249;}
	.st8{opacity:0.51;fill:#CCA72E;}
	.st9{fill:#DD4017;stroke:#EA8871;stroke-width:0.5193;stroke-miterlimit:10;}
	.st10{fill:#A57A25;}
	.st11{fill:#9E6749;}
	.st12{fill:#FFFFFF;}
	.st13{fill:#AF745A;}
	.st14{fill:#6B2F24;}
	.st15{fill:#3A2316;}
	.st16{fill:#2F2F2F;}
	.st17{fill:#753519;}
	.st18{fill:#DD4017;}
	.st19{opacity:0.5;fill:#B52F15;}
	.st20{fill:#EDF2F0;}
	.st21{fill:#E5E6E7;}
	.st22{fill:#A4BC62;}
	.st23{fill:#83A044;}
	.st24{fill:#AD4805;}
	.st25{fill:#F7AB1D;}
	.st26{fill:#DB931F;}
	.st27{fill:#F11919;}
	.st28{fill:#E54E3E;}
	.st29{fill:#EAAC7D;}
	.st30{opacity:0.4;}
	.st31{fill:#F25A5A;}
	.st32{fill:#F46F6F;}
	.st33{fill:#EDE4DD;}
	.st34{fill:#DD4017;stroke:#EA8871;stroke-width:1.0385;stroke-miterlimit:10;}
	.st35{fill:#DBBD40;}
	.st36{fill:#D6B93C;}
	.st37{fill:#BCA133;}
	.st38{fill:#6C8C27;stroke:#E6ED83;stroke-width:0.7789;stroke-miterlimit:10;}
	.st39{fill:#EDB894;}
	.st40{fill:#79A9AA;}
	.st41{fill:none;}
	.st42{fill:#DBB12A;}
	.st43{fill:#C4981E;}
	.st44{fill:#F9CC2F;}
	.st45{fill:#31A3B9;}
	.st46{fill:#31A3B9;stroke:#90B7F4;stroke-width:0.5193;stroke-miterlimit:10;}
	.st47{fill:#497776;}
	.st48{fill:#EAC0A0;}
	.st49{fill:#689999;}
	.st50{fill:#F9D1AE;}
	.st51{fill:#7DA9AA;}
	.st52{fill:#C15316;}
	.st53{fill:#EB5F06;}
	.st54{fill:#6C8C27;}
	.st55{fill:#5E7520;}
	.st56{fill:#FDCD3D;}
	.st57{opacity:0.24;fill:#FFFFFF;}
</style>
<defs>
</defs>
<g id="XMLID_40_">
	<g id="XMLID_166_">
		<ellipse id="XMLID_234_" class="st0" cx="209.9" cy="245.3" rx="66.7" ry="11.5"/>
		<g id="XMLID_167_">
			<path id="XMLID_233_" class="st1" d="M191.2,92.8c0,0-23.7,17.1-30.2,46.6c0,0-10.6,52.8-6.6,77.9c0,0,1,23.4,2.2,29.5l106.3-1.1
				c0,0,7.3-69.2-0.4-99.8c0,0-15.7-49.2-33.9-54.6L191.2,92.8z"/>
			<path id="XMLID_232_" class="st2" d="M170,164.9c0,0,34.2,16.4,86.7,0c0,0,10.9,60.8,3.3,80.1l-100.9,0.7
				C159.1,245.8,146,186.8,170,164.9z"/>
			<path id="XMLID_231_" class="st3" d="M155.8,225.7c0,0,75.4,7.6,110-2.2l-2.9,22.2l-106.3,1.1L155.8,225.7z"/>
			<path id="XMLID_230_" class="st4" d="M174.4,180.6c0,0,11.3,50,45.9,48.1l-47-0.7C173.3,227.9,172.6,187.9,174.4,180.6z"/>
			<rect id="XMLID_229_" x="170.9" y="232.3" class="st2" width="85.7" height="2.9"/>
			<rect id="XMLID_228_" x="169" y="238.6" class="st2" width="85.7" height="2.9"/>
			<path id="XMLID_227_" class="st5" d="M176.2,156.1c0,0-9,76.5,2.9,88.8l1.8,2l-25.1,0.1C155.8,246.9,148.1,170.1,176.2,156.1z"/>
			<path id="XMLID_226_" class="st5" d="M245.5,157.5c0,0,8.7,76-3.2,88.4l-0.3,0.2l24.1,0.8C266.1,246.9,273.6,171.6,245.5,157.5z"
				/>
			<g id="XMLID_223_">
				<path id="XMLID_225_" class="st6" d="M208.9,105.3c0,0-0.3,18.2-36,55.7c0,0-22.8,27.7-10,86h-7.4c0,0-5.6-39,1-87.1
					c0,0,5.8-52.1,34.2-67.4c0,0,12.4,3.6,18.6,11.3L208.9,105.3z"/>
				<path id="XMLID_224_" class="st6" d="M213.3,105.2c0,0,0.1,18.4,35.8,56c0,0,22.5,27.2,9.7,85.4l7.4,0.4c0,0,6.1-39.1-0.5-87.1
					c0,0-5.8-52.1-34.2-67.4c0,0-12.4,3.6-18.6,11.3L213.3,105.2z"/>
			</g>
			<g id="XMLID_214_">
				<g id="XMLID_220_">
					<path id="XMLID_222_" class="st7" d="M224.5,139.7l-0.4-3.8l-2.6,0.1c0-0.5,0-0.9-0.1-1.4c-0.5-4.5-4.1-7.7-8-7.2
						c-3.9,0.5-6.6,4.5-6.1,8.9c0,0.1,0,0.1,0,0.2l-2.8,0.1l0.2,3.7l-13.5,0.4c0,0,6.3,11.4,19.8,13.4c-0.4,0.6-0.6,1.2-0.6,1.9
						c0,0,0,0.1,0,0.1c2.7-0.3,8.2-0.4,10.9-0.6c0,0,0-0.1,0-0.1c0-0.5-0.2-1.1-0.5-1.5c2.5-0.7,6.1-2.4,10.7-6.2
						c0,0,7.7-5.4,17.2-7.3l-0.1-1.2L224.5,139.7z"/>

						<ellipse id="XMLID_221_" transform="matrix(0.1578 0.9875 -0.9875 0.1578 304.5583 -105.5721)" class="st7" cx="214.2" cy="125.8" rx="1.3" ry="1.4"/>
				</g>
				<path id="XMLID_219_" class="st8" d="M217.9,128.5c0,0-4,3.7-2.9,7.9l6.4-0.5C221.4,135.9,221.6,130.4,217.9,128.5z"/>
				<path id="XMLID_218_" class="st8" d="M204.7,140.2c0,0,5.7,12.6,12.3,15.4l-6.5,0.3c0,0-0.1-1.5,0.6-2c0,0-11.9-0.7-19.8-13.4
					L204.7,140.2L204.7,140.2z"/>
				<polygon id="XMLID_217_" class="st9" points="208.9,141.4 206.8,144 209,146.7 211,144 				"/>
				<polygon id="XMLID_216_" class="st9" points="216.2,141.5 214.1,144.1 216.3,146.8 218.4,144.2 				"/>
				<polygon id="XMLID_215_" class="st9" points="223.1,141.4 220.9,144 223.1,146.7 225.2,144.1 				"/>
			</g>
			<g id="XMLID_209_">
				<path id="XMLID_213_" class="st10" d="M198.1,148.1c0,0,2.2,19.3-3.6,26.9C194.4,175,185.7,159.6,198.1,148.1z"/>
				<path id="XMLID_212_" class="st11" d="M194.3,149.6l2.1,0c0,0,6.8-4.2,8.6-4.4c0,0,1.7-0.1,1.7,1.4c0,0,0.2,0.9-0.9,1.4
					c0,0-1.3,0.6-1.7,0.7l-0.5,0.4l7.5,0.1l3.7,0.1c0,0,1.3,0.5,0.5,1.7c0,0-0.8,0.5-1.6,0.4c0,0-5.2,0.2-5.7,0.2l-0.6,0.1
					c0,0-0.4,0.4,0.1,0.9l7.7,0.1c0,0,1.4-0.1,1.5,0.6c0,0,0.4,0.9-0.6,1.3l-4.7-0.1l-3.3-0.3c0,0-1,0.1-0.6,0.9
					c0,0,0.9,0.2,1.5,0.2l4,0.2c0,0,2.8-0.2,3.4,0.3c0,0,0.8,1.2,0.2,1.6c0,0-0.9,0.4-1.6,0.2l-6.7-0.2c0,0-1.2-0.2-1.1,0.7
					c0,0,0.4,0.6,1,0.6l4.7,0.1c0,0,1,0.6,0.5,1.4c0,0-0.4,0.6-1.7,0.3c0,0-8.1-0.2-8.9-0.6c0,0-3.6-0.2-5.8-2.1l-2.4-0.3
					C194.5,157.8,191.6,151.3,194.3,149.6z"/>
				<path id="XMLID_211_" class="st4" d="M198.1,148.1c0,0-9.2,18.2-3.4,26.9c0,0-19.6-6.9-23.6-11.9c0,0,2.9-4.6,15.5-18
					L198.1,148.1z"/>
				<path id="XMLID_210_" class="st12" d="M194.7,147.2c0,0-10.5,10.7-6.1,25.5l-4.4-2c0,0-3.8-16.8,7.6-24.2L194.7,147.2z"/>
			</g>
			<g id="XMLID_204_">
				<path id="XMLID_208_" class="st10" d="M223.6,151c0,0-2.2,19.3,3.6,26.9C227.2,177.9,236,162.5,223.6,151z"/>
				<path id="XMLID_207_" class="st13" d="M227.4,152.5l-2.1,0c0,0-6.8-4.2-8.6-4.4c0,0-1.7-0.1-1.7,1.4c0,0-0.2,0.9,0.9,1.4
					c0,0,1.3,0.6,1.7,0.7l0.5,0.4l-7.5,0.1l-3.7,0.1c0,0-1.3,0.5-0.5,1.7c0,0,0.8,0.5,1.6,0.4c0,0,5.2,0.2,5.7,0.2l0.6,0.1
					c0,0,0.4,0.4-0.1,0.9l-7.7,0.1c0,0-1.4-0.1-1.5,0.6c0,0-0.4,0.9,0.6,1.3l4.7-0.1l3.3-0.3c0,0,1,0.1,0.6,0.9c0,0-0.9,0.2-1.5,0.2
					l-4,0.2c0,0-2.8-0.2-3.4,0.3c0,0-0.8,1.2-0.2,1.6c0,0,0.9,0.4,1.6,0.2l6.7-0.2c0,0,1.2-0.2,1.1,0.7c0,0-0.4,0.6-1,0.6l-4.7,0.1
					c0,0-1,0.6-0.5,1.4c0,0,0.4,0.6,1.7,0.3c0,0,8.1-0.2,8.9-0.6c0,0,3.6-0.2,5.8-2.1l3.1-0.1C227.9,160.9,230,154.2,227.4,152.5z"
					/>
				<path id="XMLID_206_" class="st4" d="M223.6,151c0,0,9.2,18.2,3.4,26.9c0,0,19.3-6,24.8-12.6c0,0-2-4.9-14.6-17.9L223.6,151z"/>
				<path id="XMLID_205_" class="st12" d="M229,149.4c0,0,10.5,10.7,6.1,25.5l4.4-2c0,0,3.8-16.8-7.6-24.2L229,149.4z"/>
			</g>
			<g id="XMLID_168_">
				<ellipse id="XMLID_203_" class="st14" cx="234.3" cy="57.4" rx="5.6" ry="6.3"/>
				<ellipse id="XMLID_202_" class="st14" cx="187.8" cy="57.6" rx="5.6" ry="5.3"/>
				<ellipse id="XMLID_201_" class="st11" cx="210.8" cy="66.8" rx="24.8" ry="24.2"/>
				<g id="XMLID_195_">
					<ellipse id="XMLID_200_" class="st15" cx="202.1" cy="64.1" rx="1.5" ry="2.2"/>
					<ellipse id="XMLID_199_" class="st15" cx="219" cy="64.1" rx="1.5" ry="2.2"/>
					<path id="XMLID_198_" class="st16" d="M206.2,59.7c0,0-6.8-4-10.1,3.7l-0.3-0.1c0,0,1.2-5.8,6.2-6.5
						C202.1,56.8,205.3,57.2,206.2,59.7z"/>
					<path id="XMLID_197_" class="st16" d="M214.8,59.7c0,0,6.8-4,10.1,3.7l0.3-0.1c0,0-1.2-5.8-6.2-6.5
						C218.9,56.8,215.7,57.2,214.8,59.7z"/>
					<path id="XMLID_196_" class="st17" d="M206.6,80c0,0,4.9,2.4,8.7-1.2c0,0-0.4,2.9-3,3.9C212.3,82.6,207.8,83.1,206.6,80z"/>
				</g>
				<path id="XMLID_191_" class="st16" d="M237.2,58.4C237.2,58.4,237.2,58.4,237.2,58.4c0-0.1-0.1-0.3-0.1-0.4c0-0.1,0-0.1,0-0.1
					l0,0c-5.9-13.7-16.7-14.8-20.6-14.7c0.1,0,0.1-0.1,0.2-0.1c0,0-9.5-5.3-21.4,1.5c0,0-6.8,4.7-9.8,13.4c0,0,0,0,0,0
					c0,0,0,0.1-0.1,0.2c-0.2,0.5-0.3,0.9-0.4,1.4c-1.6,5.4-6.4,22.8-3.4,29.5c0.1,0.2,0.2,0.4,0.3,0.6c0,0,8.1,17.6,30.7,18.2
					c0,0,20.3-2.1,28.7-17.3c0,0,0,0,0-0.1c0.2-0.3,0.3-0.5,0.5-0.9c0.1-0.2,0.2-0.4,0.3-0.6C244.8,81.5,238.3,61.8,237.2,58.4z
					 M219,45.8c1,6.5,6.1,10.6,10.4,12.2l-1,17c-2.7-2.6-6.6-4.5-13.8-3.6c0,0-2.4,0.3-3.6,2.1c-1.3-1.3-3.2-1.6-3.2-1.6
					c-7.7-1-13.4,2.2-15.9,4.9c-0.7-3.8-1.6-14.7-2-17.6C197.2,57.4,212.8,52.9,219,45.8z M210.7,89.9c0,0-9.8-9.8-15.9-11.7
					c4.8-1.6,8.6-0.7,8.6-0.7c5,0.8,7.5-2.5,8-3.2c0.9,1.2,3.4,3.5,7.6,2.8c0,0,4.6-1.1,10.1,1.3C227.5,78.9,213.2,84.3,210.7,89.9z
					"/>
				<g id="XMLID_169_">
					<g id="XMLID_170_">
						<path id="XMLID_190_" class="st18" d="M237.7,45.8c-0.2,4.1,1.5,0.8-2.1,3.8c-4.9,4.1-18.7-8.7-25.4-8.7
							c-6.7,0-16.1,8.1-22.1,8.6c-4.8,0.4-2.1-0.7-1.7-4.7c2.1-21.6,14-31.3,25.5-31.3C223.4,13.4,238.7,24.9,237.7,45.8z"/>
						<path id="XMLID_189_" class="st19" d="M186.4,44.7c-0.4,4.1-3.1,5.1,1.7,4.7c3.1-0.2,7.1-2.5,11.2-4.6
							c-0.2-0.6-0.4-1.2-0.5-1.8c-1.1-5.1-5-10.7-3-15.5c1.8-4.7,9.4-8.8,11.2-13.5C197.2,16.4,188.2,26.2,186.4,44.7z"/>
						<path id="XMLID_188_" class="st19" d="M220,19.6c9.1,6.7,13.1,18.3,14.5,23.3c0.9,3.3,0.4,1.7-0.8,4.7c3.8,1.9,0,3.7,1.9,2
							c3.5-3,1.9,0.3,2.1-3.8c1-20.9-14.3-32.4-25.8-32.4c-0.6,0-1.2,0-1.9,0.1C214.6,15.5,216,16.6,220,19.6z"/>
						<path id="XMLID_187_" class="st20" d="M205.3,31.4c0,0-23.2,11.7-24.9,18.9c0,0-2.3,7.2,2.5,11.4l1,0.3c0,0-2.5-2.5-1.2-5.5
							l24.7-15.2C207.4,41.3,206.1,32.9,205.3,31.4z"/>
						<path id="XMLID_186_" class="st21" d="M207.8,38.6c0,0-26.2,16.4-26.4,17.4c0,0-2,3.4,2.4,7.2l0.4-1.5c0,0-1.3-4.2,1.6-5.9
							c0,0,22.6-12.5,23.5-13.4L207.8,38.6z"/>
						<path id="XMLID_185_" class="st20" d="M213.8,30.9c0,0,27.8,13.2,29.6,20.4c0,0,2.3,7.2-2.5,11.4l-1,0.3c0,0,2.5-2.5,1.2-5.5
							l-27.6-17.7C213.4,39.8,213,32.4,213.8,30.9z"/>
						<path id="XMLID_184_" class="st21" d="M213.2,37.4c0,0,29,18.5,29.2,19.5c0,0,1.7,2.8-2.7,6.7h-0.8c0,0,1.9-5.2-1-6.8
							c0,0-25.3-14.5-26.3-15.4L213.2,37.4z"/>
						<path id="XMLID_183_" class="st22" d="M210,32.4c0,0,9.6,3.8,11-7.8c0,0-3.9-22-6.2-24.6l-0.2,0.3
							C214.6,0.3,204.8,16.7,210,32.4z"/>
						<g id="XMLID_175_">
							<polygon id="XMLID_182_" class="st23" points="211.2,7.1 216.5,4.2 216.2,3.3 210.7,6.4 							"/>
							<polygon id="XMLID_181_" class="st23" points="209.9,12.1 217.5,7.9 217.3,7 209.1,11.5 							"/>
							<polygon id="XMLID_180_" class="st23" points="208.3,16.5 218.3,11.1 217.9,9.7 207.5,15.9 							"/>
							<polygon id="XMLID_179_" class="st23" points="207.6,21.8 219.3,15.6 219,14.3 206.8,21.2 							"/>
							<polygon id="XMLID_178_" class="st23" points="208.1,26.9 220.2,20.7 220,19.7 207.3,26.3 							"/>
							<path id="XMLID_177_" class="st23" d="M208.9,28.6c0.4-0.1,12-4.1,12-4.1l-0.4,1.8l-12.1,3.1L208.9,28.6z"/>
							<path id="XMLID_176_" class="st23" d="M214.8,0c0,0-0.2,0.3-0.5,0.8c-2.4,3.4-11.9,17.7-11.4,25.1c0,0,0.4,6,3.7,6.7l5.4,0.3
								c0,0-0.6-17.4,2.7-31.2C214.7,1.2,214.8,0.6,214.8,0z"/>
						</g>
						<g id="XMLID_171_">
							<ellipse id="XMLID_174_" class="st24" cx="210" cy="35.8" rx="5.8" ry="6.6"/>
							<ellipse id="XMLID_173_" class="st25" cx="209.9" cy="35.7" rx="4" ry="5"/>
							<path id="XMLID_172_" class="st26" d="M209.4,30.7c0,0,3.9,6.9,0.2,10c0,0,2.4,0.2,3.5-2.2c0,0,2.1-4.6-1.6-7.4
								C211.6,31.1,210.7,30.4,209.4,30.7z"/>
						</g>
					</g>
				</g>
			</g>
		</g>
	</g>
	<g id="XMLID_106_">
		<ellipse id="XMLID_165_" class="st0" cx="356.5" cy="245.3" rx="66.7" ry="11.5"/>
		<g id="XMLID_107_">
			<path id="XMLID_164_" class="st27" d="M334.4,93.6c0,0-23.7,17.1-30.2,46.6c0,0-10.6,52.8-6.6,77.9c0,0,1,23.4,2.2,29.5
				l106.3-1.1c0,0,7.3-69.2-0.4-99.8c0,0-15.7-49.2-33.9-54.6L334.4,93.6z"/>
			<path id="XMLID_163_" class="st28" d="M313.3,165.7c0,0,34.2,16.4,86.7,0c0,0,10.9,60.8,3.3,80.1l-100.9,0.7
				C302.3,246.5,289.2,187.5,313.3,165.7z"/>
			<path id="XMLID_162_" class="st3" d="M299.1,226.5c0,0,75.4,7.6,110-2.2l-2.9,22.2l-106.3,1.1L299.1,226.5z"/>
			<path id="XMLID_161_" class="st27" d="M317.6,181.3c0,0,10.9,48.1,45.9,47.7l-47-1.1C316.5,227.9,315.8,188.6,317.6,181.3z"/>
			<path id="XMLID_160_" class="st5" d="M319.5,156.8c0,0-9,76.5,2.9,88.8l1.8,2l-25.1,0.1C299,247.7,291.3,170.9,319.5,156.8z"/>
			<path id="XMLID_159_" class="st5" d="M388.7,158.2c0,0,8.7,76-3.2,88.4l0,0l23.8,1C409.3,247.6,416.9,172.3,388.7,158.2z"/>
			<g id="XMLID_156_">
				<path id="XMLID_158_" class="st23" d="M352.1,106.1c0,0-0.3,18.2-36,55.7c0,0-22.8,27.7-10,86h-7.4c0,0-5.6-39,1-87.1
					c0,0,5.8-52.1,34.2-67.4c0,0,12.4,3.6,18.6,11.3L352.1,106.1z"/>
				<path id="XMLID_157_" class="st23" d="M356.5,105.9c0,0,0.1,18.5,35.8,56c0,0,22.4,27.1,9.7,85.3l7.4,0.5c0,0,6.1-39.1-0.5-87.1
					c0,0-5.8-52.1-34.2-67.4c0,0-12.4,3.6-18.6,11.3L356.5,105.9z"/>
			</g>
			<polygon id="XMLID_155_" class="st5" points="324.9,247.2 328.7,247.2 333.8,236.6 338.2,247.2 342,247.2 333.8,231 			"/>
			<polygon id="XMLID_154_" class="st5" points="345.7,247.5 349.6,247.5 354.6,236.7 359.1,247.3 362.8,247.3 354.6,231.1 			"/>
			<polygon id="XMLID_153_" class="st5" points="365.8,246.9 369.8,246.9 374.8,236.1 379.3,246.7 383,246.6 374.8,230.5 			"/>
			<g id="XMLID_128_">
				<ellipse id="XMLID_152_" class="st29" cx="356.3" cy="77.2" rx="24.8" ry="24.2"/>
				<g id="XMLID_151_" class="st30">
					<ellipse id="XMLID_805_" class="st31" cx="343.7" cy="81.9" rx="6" ry="4.8"/>
					<g id="XMLID_710_">
						<g id="XMLID_714_">
							<g id="XMLID_715_">
								<g id="XMLID_716_">
									<path id="XMLID_804_" class="st32" d="M348.4,81.9c0,0-0.2,0-0.2,0C348.2,82,348.5,81.9,348.4,81.9z"/>
									<polygon id="XMLID_803_" class="st32" points="348.8,82.6 348.7,82.6 348.9,82.7 									"/>
									<path id="XMLID_802_" class="st32" d="M348.6,83.2c0.4,0.1,0-0.2,0.2-0.3l0.1,0l-0.3-0.1C348.6,82.9,348.8,83.1,348.6,83.2
										z"/>
									<path id="XMLID_801_" class="st32" d="M347.8,83.1C347.9,83.1,347.8,83.2,347.8,83.1C347.8,83.1,347.8,83.1,347.8,83.1
										C347.8,83.1,347.8,83.1,347.8,83.1z"/>
									<path id="XMLID_800_" class="st32" d="M347.8,83.1C347.8,83,347.7,83,347.8,83.1L347.8,83.1z"/>
									<path id="XMLID_799_" class="st32" d="M347.7,83.3l-0.1-0.1c-0.1,0-0.1,0-0.2,0C347.5,83.2,347.6,83.3,347.7,83.3z"/>
									<path id="XMLID_798_" class="st32" d="M347.9,83.5L347.9,83.5C347.9,83.4,347.9,83.4,347.9,83.5z"/>
									<path id="XMLID_797_" class="st32" d="M347.9,83.3l0.1,0.1C348,83.5,348.1,83.5,347.9,83.3C348,83.5,347.9,83.4,347.9,83.3
										z"/>
									<path id="XMLID_796_" class="st32" d="M347.9,83.3c0.1,0,0.2,0,0.2,0.1C348.2,83.3,348,83.2,347.9,83.3z"/>
									<path id="XMLID_795_" class="st32" d="M349,83.4l0.1,0l-0.1-0.1C349,83.3,348.8,83.3,349,83.4z"/>
									<path id="XMLID_794_" class="st32" d="M347.3,83.5c0.1,0.1,0.2,0.1,0.3,0.2l0-0.1C347.5,83.6,347.4,83.6,347.3,83.5z"/>
									<path id="XMLID_793_" class="st32" d="M347.6,83.7l0,0.2C347.7,83.8,347.6,83.8,347.6,83.7z"/>
									<path id="XMLID_792_" class="st32" d="M348.3,83.8c0,0-0.2-0.3-0.2-0.3S348.3,83.8,348.3,83.8L348.3,83.8z"/>
									<polygon id="XMLID_790_" class="st32" points="347.1,83.8 347,83.6 347.1,83.8 									"/>
									<path id="XMLID_789_" class="st32" d="M347,83.9c-0.1-0.1-0.2-0.2-0.2-0.3c0,0.1,0,0.2,0.1,0.3
										C346.8,83.9,346.8,83.9,347,83.9z"/>
									<path id="XMLID_788_" class="st32" d="M346.8,84.1c0,0,0-0.1,0-0.2C346.8,84,346.8,84.1,346.8,84.1z"/>
									<path id="XMLID_787_" class="st32" d="M347.5,84c0,0-0.1-0.1-0.2-0.1L347.5,84L347.5,84z"/>
									<path id="XMLID_786_" class="st32" d="M347.5,84L347.5,84C347.4,84,347.4,84,347.5,84C347.4,84,347.4,84,347.5,84z"/>
									<path id="XMLID_785_" class="st32" d="M347.5,84L347.5,84C347.5,84,347.5,84,347.5,84z"/>
									<path id="XMLID_784_" class="st32" d="M347.9,83.8c0.1,0.1,0.1,0.3,0.3,0.3C348.2,84,348,84,347.9,83.8z"/>
									<path id="XMLID_783_" class="st32" d="M347.7,84.1l0.1,0c0,0-0.1-0.1-0.1-0.1L347.7,84.1z"/>
									<polygon id="XMLID_782_" class="st32" points="347.7,84.2 347.7,84.1 347.7,84.1 									"/>
									<path id="XMLID_781_" class="st32" d="M347.1,84.2c0,0.1,0,0.1,0,0.2c0.1,0,0.1,0,0.2-0.1
										C347.2,84.3,347.1,84.2,347.1,84.2z"/>
									<path id="XMLID_780_" class="st32" d="M347.3,84.1L347.3,84.1C347.3,84.1,347.3,84.1,347.3,84.1z"/>
									<polygon id="XMLID_779_" class="st32" points="346.6,84.7 346.7,84.7 346.6,84.7 									"/>
									<path id="XMLID_778_" class="st32" d="M347.3,84.4c0.1,0,0-0.1,0-0.1C347.3,84.3,347.3,84.3,347.3,84.4
										C347.3,84.4,347.3,84.4,347.3,84.4z"/>
									<path id="XMLID_777_" class="st32" d="M346.8,84.3c0,0,0.1,0,0.1,0.1C346.9,84.3,346.8,84.3,346.8,84.3z"/>
									<path id="XMLID_776_" class="st32" d="M347.2,84.1L347.2,84.1C347.2,84.1,347.2,84.1,347.2,84.1z"/>
									<path id="XMLID_775_" class="st32" d="M347.2,84.1c0,0,0,0.1,0,0.1C347.3,84.2,347.3,84.2,347.2,84.1
										C347.3,84.1,347.3,84.1,347.2,84.1z"/>
									<path id="XMLID_774_" class="st32" d="M347.2,86c-0.1-0.2-0.1-0.4,0.2-0.3c0-0.2-0.4-0.7-0.7-1c0,0.1,0.1,0.1,0.1,0.3
										c0.1,0.1,0.3,0.1,0.4,0.3c-0.1,0.2-0.1,0-0.3-0.1c0.2,0.2,0,0.4,0.2,0.7l0.1-0.2C347.1,85.9,347.1,86,347.2,86z"/>
									<path id="XMLID_773_" class="st32" d="M346.8,84.6L346.8,84.6c0,0-0.1-0.1-0.2-0.2c0,0.1,0,0.2,0.1,0.3L346.8,84.6
										L346.8,84.6z"/>
									<path id="XMLID_772_" class="st32" d="M347,84.5c0.1,0.2,0.1,0.3,0.3,0.5c0.1-0.1,0-0.2,0-0.3
										C347.1,84.8,347.2,84.5,347,84.5C347,84.4,347,84.4,347,84.5c0-0.1,0-0.1-0.1-0.1l0,0l0,0l0,0C347,84.4,347,84.4,347,84.5
										L347,84.5C347,84.4,347,84.5,347,84.5C346.9,84.5,347,84.4,347,84.5l-0.1-0.1l0,0l-0.1,0.2C346.9,84.6,346.9,84.5,347,84.5
										z"/>
									<path id="XMLID_771_" class="st32" d="M348.5,84.6C348.5,84.6,348.5,84.6,348.5,84.6C348.5,84.6,348.5,84.6,348.5,84.6z"/>
									<path id="XMLID_770_" class="st32" d="M348.4,84.6c0,0-0.1-0.1,0-0.1c0.1,0,0.1,0.1,0.1,0.1c0-0.1,0-0.2-0.2-0.2l0,0
										c-0.1,0-0.4-0.1-0.4-0.1C348.1,84.4,348.2,84.5,348.4,84.6z"/>
									<path id="XMLID_769_" class="st32" d="M347.7,84.6l-0.1,0.2l0.2,0.1l-0.1-0.1C347.9,84.8,347.7,84.7,347.7,84.6z"/>
									<polygon id="XMLID_768_" class="st32" points="346.6,84.6 346.4,84.4 346.5,84.7 									"/>
									<polygon id="XMLID_767_" class="st32" points="346.4,84.7 346.3,84.5 346.3,84.7 									"/>
									<path id="XMLID_766_" class="st32" d="M337.7,78.5L337.7,78.5C337.7,78.4,337.7,78.4,337.7,78.5z"/>
									<path id="XMLID_765_" class="st32" d="M337.4,78.9L337.4,78.9C337.4,78.9,337.4,78.9,337.4,78.9z"/>
									<path id="XMLID_764_" class="st32" d="M341.3,84.9c0-0.2,0.1-0.5,0-0.3L341.3,84.9C341.2,84.8,341.3,84.8,341.3,84.9z"/>
									<path id="XMLID_763_" class="st32" d="M337.8,83L337.8,83c0,0,0.1,0,0.2,0C337.9,83,337.8,83,337.8,83z"/>
									<path id="XMLID_762_" class="st32" d="M336.8,83.2l0.1-0.2C336.9,83,336.9,83.1,336.8,83.2z"/>
									<path id="XMLID_761_" class="st32" d="M339.9,76.5l0-0.2C339.7,76.3,339.8,76.4,339.9,76.5z"/>
									<path id="XMLID_760_" class="st32" d="M344.3,85.4c-0.1-0.1-0.1-0.1-0.2-0.1C344.2,85.4,344.3,85.6,344.3,85.4z"/>
									<path id="XMLID_759_" class="st32" d="M339.5,80.1c0,0,0-0.1-0.1-0.1C339.4,80,339.4,80.1,339.5,80.1z"/>
									<path id="XMLID_758_" class="st32" d="M344,85.3C344,85.3,344,85.3,344,85.3c0.1,0,0.1,0,0.2,0
										C344.1,85.2,344,85.2,344,85.3z"/>
									<path id="XMLID_757_" class="st32" d="M349.4,78.1C349.4,78.1,349.4,78.1,349.4,78.1C349.4,78.1,349.4,78.1,349.4,78.1z"/>
									<path id="XMLID_756_" class="st32" d="M348.6,81.4C348.6,81.3,348.6,81.3,348.6,81.4C348.6,81.3,348.6,81.3,348.6,81.4z"/>
									<path id="XMLID_755_" class="st32" d="M345.6,85C345.6,84.9,345.6,84.9,345.6,85L345.6,85z"/>
									<path id="XMLID_754_" class="st32" d="M346.1,85.7c0,0,0,0.1,0,0.1C346.1,85.8,346.1,85.7,346.1,85.7z"/>
									<path id="XMLID_753_" class="st32" d="M343.5,86.7L343.5,86.7C343.5,86.8,343.5,86.8,343.5,86.7z"/>
									<path id="XMLID_752_" class="st32" d="M345.7,85C345.6,85,345.6,85,345.7,85C345.6,85,345.6,85,345.7,85z"/>
									<path id="XMLID_751_" class="st32" d="M345.6,84.9C345.6,84.9,345.7,84.9,345.6,84.9C345.7,84.9,345.7,84.9,345.6,84.9z"/>
									<path id="XMLID_750_" class="st32" d="M345.5,85C345.5,85,345.6,85,345.5,85C345.6,85,345.6,85,345.5,85
										C345.6,85,345.6,85,345.5,85z"/>
									<path id="XMLID_749_" class="st32" d="M344.4,76.5C344.4,76.5,344.4,76.5,344.4,76.5C344.5,76.4,344.5,76.4,344.4,76.5z"/>
									<polygon id="XMLID_748_" class="st32" points="338.9,86.2 338.9,86.2 338.9,86.2 									"/>
									<path id="XMLID_747_" class="st32" d="M338.6,86.2c0.3-0.1,0.3-0.1,0.3,0l0.3-0.6c0,0-0.2,0.1-0.3,0.3
										C338.7,86,338.6,86.2,338.6,86.2z"/>
									<path id="XMLID_740_" class="st32" d="M338.6,77.5l-0.3,0c-0.1-0.4,0.2-0.4-0.2-0.5c0.4,0.6-0.5,0.5,0,1.1l-0.2,0
										c0,0,0-0.1,0-0.1c-0.4-0.1,0.2,0.5,0,0.6c-0.1,0-0.2,0-0.2-0.1l0,0.3c0,0-0.1,0-0.1-0.1l-0.2,0.3l0,0
										c0.1,0.1,0.1,0.3,0.2,0.4c-0.1,0,0-0.1-0.1-0.1l0.1,0.2c-0.2,0-0.3-0.3-0.2-0.4c-0.7-0.2,0.1,0.2-0.5,0.4l0-0.2
										c-0.4-0.1-0.4,0.1-0.7,0.2c0.1,0,0.8-0.1,0.8,0.1c-0.1,0-0.1,0.1,0,0.3c-0.2-0.1-0.2,0-0.3,0.2l-0.3-0.1
										c0,0.2,0.2,0.2,0.3,0.4c-0.1,0.2-0.3,0.1-0.6,0.1c-0.1,0.3,0.5-0.1,0.4,0.3c-0.2,0.2-0.1,0.4,0.1,0.7
										c-0.1,0.1-0.2-0.1-0.3,0l0.3,0.2c0,0-0.1,0-0.1,0c0.1,0.1,0.3,0,0.4,0.2c0.4,0-0.5,0.4-0.1,0.6c-0.1,0.1-0.2,0-0.3,0
										c0.3,0.3,0.2,0.3,0.6,0.4l-0.2,0.2c0.2-0.2,0.5-0.1,0.8,0c0.1-0.1,0.2-0.1,0.2-0.2l0.2,0.1c0,0-0.2,0.1-0.3,0.1
										c0,0,0.1,0,0.1,0c-0.1,0.1-0.3,0.1-0.5,0.1c0.1,0,0.1-0.1,0.2-0.1c-0.2,0-0.4,0-0.6,0.1c0,0,0.1,0,0.1,0.1
										c-0.1,0-0.1,0-0.1,0c0,0,0,0,0.1,0l-0.3,0.2l0.1,0l-0.1,0.4c0.5,0.1,1,0.1,1.3,0.3c-0.3,0.1-0.4,0.2-0.7,0.4
										c0.2-0.3-0.3-0.2-0.3-0.4c0,0.1-0.1,0.2-0.2,0.2c0,0,0.4,0.2,0.5,0.2c-0.2,0.1-0.1,0.2-0.2,0.3c0.4-0.3,0.4,0.1,0.7,0.1
										c-0.1,0.1-0.3,0.2-0.4,0c-0.2,0.4,0.6-0.2,0.5,0.2c0,0,0-0.1-0.1,0c0.2,0,0.2,0.2,0.1,0.3l0,0c0.1,0.3,0.6,0.6,0.9,0.3
										c0,0-0.4,0.4-0.4,0.4c0,0,0.3-0.2,0.7-0.4c0.3-0.2,0.6-0.5,0.6-0.5c-0.3,0.3-0.7,1.1-1,1.1c0,0.1,0.1,0.2,0.3,0.2
										c0-0.1,0.2-0.5,0.3-0.5c-0.1,0.4,0,0.3-0.1,0.7c0-0.1,0.4-0.6,0.4-0.5c-0.1,0.1-0.3,0.5-0.4,0.5c0,0,0.1-0.1,0.3-0.2
										c0.1-0.1,0.3-0.2,0.3-0.2c-0.1,0.1-0.3,0.4-0.3,0.6c0-0.1,0.2,0.1,0.3,0.1l0-0.2c0.2,0.2,0.6-0.6,0.9-0.5
										c-0.1,0.1-0.4,0.7-0.3,0.8c0.2-0.2,0.8-1.2,1.1-1.4l0,0.2l0.2-0.1c-0.2,0.4-0.8,1.2-1.1,1.5c0.1,0.2,0,0.2,0.1,0.2
										c0,0.2-0.2,0.2-0.2,0.2c0,0,0.4,0.3,0.4,0.2c0.1-0.3,0.4-0.2,0.5-0.5c0,0-0.1,0.1-0.3,0.1c-0.1,0.1-0.3,0.1-0.3,0.1
										c0.1-0.3,0.5-0.9,0.8-0.7c0,0.2-0.2,0.6-0.2,0.7c0.1-0.1,0.3-0.1,0.3-0.1l-0.2,0.2c0.1,0.2,0.4-0.4,0.5,0
										c0.1,0,0.1,0.5,0.2,0.3c0-0.4,0.2-1.6,0.3-1.9c0,0,0.2,0.4,0.3,0.6c0.1,0.3-0.2,0.7-0.2,1c0-0.1,0.1-0.2,0.1-0.2
										c0.1,0.1-0.1,0.3,0.1,0.3c0.1-0.3,0.3,0.1,0.1-0.3c0.1-0.1,0.1,0.1,0.3,0.1c0-0.2,0.2-0.8,0.3-0.9c0,0.1,0,0.2,0,0.3
										c0.3,0,0.4,0.2,0.7,0.2c0,0.1,0.2,0.2,0.1,0.3c0-0.1,0.1-0.2,0.1-0.2c0.2,0.3-0.2,0.1,0,0.4c0-0.2,0.2-0.3,0.3-0.4
										c-0.1-0.3-0.3,0-0.4,0.1c0-0.4,0.1-0.9,0.3-1.1c0.2-0.1,0.1,0.3,0.1,0.2c0.4,0,0.1-0.8,0.5-0.6c0.2,0.2,0.1,0.5,0.2,0.7
										c-0.1,0.1-0.3-0.1-0.4-0.1l0.2,0.1c0,0.1-0.1,0.2-0.2,0.1c0.2,0.2,0.6-0.1,1,0c0-0.1,0.1-0.2,0-0.3l-0.1,0.1
										c-0.1-0.2,0.1-0.3-0.1-0.4c0.1-0.2,0.1-0.5,0.3-0.4l0.2,0.3c0-0.1-0.2-0.1-0.2,0c0-0.2,0.4,0.3,0.3-0.1l-0.2-0.2
										c0-0.2,0-0.6,0.2-0.5c-0.2-0.3,0,0-0.3-0.2c0.3,0.4-0.3,0.1,0,0.5c-0.3-0.4-0.2-0.1-0.5-0.4c0,0.1,0.1,0.2,0,0.2
										c0,0,0,0.1,0,0.1l0,0l0,0c0,0,0,0,0,0c0,0,0.1,0.1,0.1,0.1c0,0.2-0.1,0.3-0.2,0.4c-0.1,0,0-0.1-0.1-0.2l0,0.2
										c-0.1-0.2-0.3-0.3-0.2-0.5l-0.1,0c-0.1-0.1-0.2-0.1-0.3,0c-0.1,0-0.1,0.3-0.1,0.1l-0.2,0.2l0-0.1c-0.2,0-0.4,0.5-0.7,0
										c-0.1,0.1-0.1,0.1-0.3,0.1l0-0.2c-0.1,0.1-0.3-0.2-0.3,0c-0.1-0.5-0.4-0.1-0.6-0.3l0,0.3c-0.1,0-0.2,0-0.4,0.1l0,0.2
										c-0.2,0.2-0.3-0.2-0.5-0.3c0-0.1,0.1,0,0.1,0c-0.1-0.6-0.6,0.2-0.6-0.2c-0.1,0.1-0.1,0-0.1,0c0,0,0,0,0,0c0,0,0,0,0,0
										c0,0,0-0.1,0-0.1c0,0.1,0,0.1,0,0.1c0,0-0.1,0-0.2,0l0.1-0.2c0,0,0,0,0,0c0-0.1-0.1,0.1-0.1,0.3c0,0-0.1,0.1-0.1,0.1
										c0.1-0.4-0.2,0.1-0.1-0.4c-0.1,0.2-0.3,0-0.6,0.3c0,0,0-0.1,0.1-0.1c0-0.1-0.1-0.2-0.2-0.1l0.2-0.3l-0.4,0.3
										c0-0.2,0.1-0.3,0.3-0.5c-0.4,0.2-0.2,0-0.6,0.2l0.1-0.1c-0.1,0-0.3,0.1-0.2-0.1c0.2-0.4-0.5-0.6-0.3-1.1
										c-0.5,0.4,0.2-0.3-0.3,0c0.1-0.1,0.2-0.2,0.3-0.2c-0.2-0.1,0.1-0.3-0.3-0.2c0.1-0.1,0.2,0,0.3-0.1c0,0-0.1,0-0.1,0
										c0.1,0,0.1,0,0.2,0c-0.1-0.1-0.5,0-0.9,0.1c0.2-0.2,0.1-0.2-0.2-0.2c0.1-0.1,0.2-0.2,0.3-0.1c0-0.1,0.1-0.4-0.2-0.4
										c0.1,0,0-0.1,0-0.1c0-0.1,0-0.2,0-0.3l-0.1,0c-0.4-0.1-0.1-0.1-0.1-0.2l0,0c0.3-0.2-0.1-0.1,0.2-0.4l-0.2,0
										c-0.5-0.1,0.3-0.2,0.2-0.4l-0.2,0c-0.1-0.1,0.8,0,0.8,0c0,0,0.1,0,0.1,0.1c0.4-0.1-0.3-0.1-0.3-0.3c0.2,0,0.4,0.2,0.5,0.1
										c0.1,0-0.4-0.5,0-0.5c-0.1,0-0.3-0.1-0.3-0.2c0-0.1,0.6,0,0.3-0.3c0,0,0.1,0,0.1,0c0-0.1,0-0.3-0.1-0.5
										c0.6,0.5,0.1-0.7,0.7-0.1c0,0,0.2-0.2,0.2-0.2l0,0.1c0.2-0.1,0.1-0.3,0.1-0.4c0.1,0,0.1,0.1,0.1,0.1c0.3,0,0.3,0,0.3-0.5
										l0.1,0.2c0-0.2,0.5,0.2,0.6-0.2c0,0,0,0.1,0,0.1c0.2-0.4,0.8,0.5,0.7-0.4l0.1-0.3c-0.3,0,0-0.4-0.2-0.5
										c0.1-0.1,0.3,0.2,0.2,0.3l0,0c0,0.5,0.4,0.1,0.4,0.4c0.5-0.1,1,0.2,1.5,0.2l0-0.4l0.2,0c0,0.1,0,0.3-0.1,0.3
										c0,0.2,0.2-0.2,0.2-0.2c0.2,0.2-0.1,0.4-0.1,0.4l0.1,0l0,0c0.1-0.1,0.1-0.3,0.3-0.3c0.1,0.1,0,0.2,0,0.3c0,0,0,0,0,0
										l0.2,0.1l0-0.3c0.1-0.1,0.2,0.1,0.2-0.3c0,0.5,0.7,0.4,0.7,0.6c0.2-0.2,0.3-0.1,0.5,0c0-0.1,0.1-0.4,0.2-0.3
										c-0.3,0.6,0.1,0.4,0,0.9c0.1-0.3,0.4,0.1,0.5-0.4c0.1,0.1-0.1,0.2-0.1,0.4c0.4-0.1,0.4,0.5,0.6,0.6
										c0.1-0.1,0.1-0.2,0.3-0.3c0,0,0,0.1-0.1,0.2c-0.1,0.1-0.1,0.2-0.1,0.2c0.1,0,0.4-0.3,0.3,0c0-0.1,0.1-0.2,0.2-0.1
										c0.1,0.4,0.3,0.6,0.5,0.8c0.2,0.2,0.3,0.6-0.1,0.9c0.2-0.1,0.2-0.1,0.2,0c0,0,0.2,0,0.3-0.1c0,0-0.1,0.1-0.1,0.2
										c-0.1,0.1-0.1,0.1-0.1,0.1c0.3,0,0,0.3,0.4,0.3l-0.1-0.1c0.4,0.1,0.8-0.2,1.3-0.3c-0.4-0.1,0.6-0.6-0.1-0.7
										c0.1-0.1,0.2,0,0.3-0.1c-0.2,0-0.3-0.1-0.3-0.3l0.1,0c-0.2-0.4-0.1-0.7-0.3-1.2l-0.2,0.2c0-0.1,0-0.2,0-0.3
										c-0.4,0.1,0.1,0.3-0.3,0.4c0.4-0.4-0.4-0.6-0.1-1.1c-0.1-0.1-0.2,0.2-0.3,0.1l0.1-0.1l-0.2,0.1c-0.1-0.1,0-0.3,0.1-0.4
										c0,0,0.1,0,0.1,0c0-0.2-0.3-0.3-0.3-0.3l0.1,0.2c-0.4-0.2-0.8-0.7-1.3-0.7l0,0.1c-0.4,0-0.2-0.3-0.5-0.3l0,0
										c-0.1,0.1-0.2,0.1-0.3,0c0.1-0.1,0-0.3,0.1-0.4c-0.4,0.1-0.2,0.1-0.6,0.4l0-0.2c-0.1,0.1-0.2,0.2-0.3,0.2
										c0.2-0.1,0-0.3,0.2-0.5c-0.2-0.5-0.6,0.2-0.7-0.4c-0.3,0.5,0.2,0.4,0.1,0.5c0,0.2-0.2,0.3-0.3,0.3c-0.1,0,0-0.7-0.3-0.8
										c0,0,0,0,0.1,0c-0.1-0.2-0.2,0.1-0.4-0.1c-0.1,0.3-0.2,0-0.2,0.4l0.3-0.1c-0.2,0.1-0.4,0.5-0.6,0.3c0-0.1,0.1-0.2,0.2-0.2
										c-0.1-0.1-0.1,0.1-0.2-0.1c0.1-0.4,0.3-0.1,0.5-0.3c-0.1-0.2-0.4,0.3-0.2-0.2c-0.2,0.5-0.3-0.1-0.5,0.3l0-0.2
										c0,0-0.1,0.2-0.2,0.1l0.1-0.3c-0.2,0.3-0.3-0.3-0.5-0.1c0.3,0,0.1,0.3,0.2,0.5c-0.4,0.3-0.2-0.6-0.7-0.5
										c0.1,0,0.3,0.1,0.2,0.3c-0.1,0-0.2-0.1-0.3-0.3c-0.3,0.1,0.1,0.2,0,0.4c-0.1-0.3-0.1,0.1-0.3,0.3l0-0.2
										c-0.4-0.1,0,0.5-0.3,0.4l0.1-0.4l-0.1,0.1l0-0.3c-0.1,0.2-0.2,0.2-0.4,0.2c0.1,0.2,0.1,0.4-0.1,0.5c-0.1-0.1,0-0.2-0.2-0.2
										c0-0.2,0-0.4,0.2-0.2c0-0.1,0-0.2,0-0.2c-0.2-0.1-0.3,0-0.4,0.1c0,0,0.1,0,0.1,0l-0.2,0.4c-0.1-0.1-0.1-0.2,0-0.2
										c-0.1,0-0.1,0.2-0.1,0.2c0-0.2-0.1-0.4,0-0.5l-0.2,0.3c0-0.1-0.2-0.2-0.2-0.3c-0.2,0-0.3,0.5-0.5,0.5c0,0,0,0.1,0,0.1
										c-0.2,0-0.5-0.1-0.6,0.3l-0.3-0.2c-0.1,0.2,0.4,0.3,0.2,0.6c-0.1,0.2-0.3-0.2-0.4-0.2c0,0.2,0.1,0.6-0.3,0.6
										C338.5,77.6,338.5,77.6,338.6,77.5z M337.1,79.6c0-0.1-0.1-0.2,0-0.2C337.3,79.6,337.2,79.6,337.1,79.6z M337.4,83.4
										c-0.1,0-0.1-0.1,0-0.2C337.4,83.3,337.4,83.4,337.4,83.4z M345.2,85.3C345.2,85.3,345.2,85.3,345.2,85.3
										C345.1,85.2,345.1,85.3,345.2,85.3z M345.3,85.4c0,0,0-0.1,0-0.1C345.3,85.3,345.3,85.3,345.3,85.4
										C345.3,85.4,345.3,85.4,345.3,85.4z M344.8,78.2L344.8,78.2C344.9,78.1,344.8,78.1,344.8,78.2z"/>
									<path id="XMLID_739_" class="st32" d="M336.9,83.1c0,0,0.1,0,0.1-0.1C337,83.1,337,83.1,336.9,83.1z"/>
									<polygon id="XMLID_738_" class="st32" points="339.9,76.5 339.9,76.5 339.9,76.5 									"/>
									<path id="XMLID_737_" class="st32" d="M342.6,87.6c0,0-0.1-0.1-0.1-0.1C342.5,87.6,342.5,87.6,342.6,87.6z"/>
									<path id="XMLID_736_" class="st32" d="M346,84.7L346,84.7c0,0.1,0,0.1,0.1,0.1C346,84.8,345.9,84.7,346,84.7z"/>
									<path id="XMLID_735_" class="st32" d="M347.5,85.6C347.5,85.6,347.5,85.6,347.5,85.6l0-0.2
										C347.4,85.5,347.4,85.6,347.5,85.6z"/>
									<path id="XMLID_734_" class="st32" d="M346.4,85.4c0.1,0.2,0.1,0.1,0.2,0c0,0,0,0,0,0C346.4,85.2,346.4,85.3,346.4,85.4z"
										/>
									<path id="XMLID_733_" class="st32" d="M346.6,85.4C346.6,85.4,346.6,85.4,346.6,85.4C346.6,85.3,346.6,85.4,346.6,85.4z"/>
									<path id="XMLID_732_" class="st32" d="M345.5,85.2c0,0-0.1-0.3,0-0.2C345.4,84.7,345.4,85.4,345.5,85.2z"/>
									<polygon id="XMLID_731_" class="st32" points="346.7,86 346.6,85.8 346.6,86 									"/>
									<path id="XMLID_730_" class="st32" d="M346.1,86.1l0.1,0c0,0,0-0.1,0-0.1C346.1,86,346,86,346.1,86.1z"/>
									<path id="XMLID_729_" class="st32" d="M346.2,86C346.2,86,346.3,86,346.2,86C346.3,85.9,346.2,86,346.2,86z"/>
									<polygon id="XMLID_728_" class="st32" points="346.6,86.2 346.5,86.1 346.4,86.1 									"/>
									<path id="XMLID_727_" class="st32" d="M344.7,86.4l-0.1,0.1c0,0.1,0,0.1,0.1,0.1C344.7,86.5,344.7,86.5,344.7,86.4z"/>
									<path id="XMLID_726_" class="st32" d="M345.2,87c-0.1,0-0.1-0.1-0.1-0.2l0.1,0.3L345.2,87z"/>
									<path id="XMLID_725_" class="st32" d="M344.8,87.2c0,0.1-0.2,0.3,0,0.2C344.8,87.3,345,87.2,344.8,87.2z"/>
									<polygon id="XMLID_724_" class="st32" points="342.5,86.7 342.5,86.7 342.6,86.2 									"/>
									<path id="XMLID_723_" class="st32" d="M340,87.3c0.1,0.2,0.2-0.3,0.3,0c0.1-0.1-0.1-0.2,0-0.3
										C340.2,87.1,340.1,87,340,87.3z"/>
									<path id="XMLID_722_" class="st32" d="M340.3,87C340.3,87,340.4,87,340.3,87C340.4,87,340.3,87,340.3,87z"/>
									<polygon id="XMLID_721_" class="st32" points="348.4,81.7 348.3,81.8 348.5,81.7 									"/>
									<path id="XMLID_720_" class="st32" d="M348.8,81.8l-0.3,0L348.8,81.8C348.7,81.9,348.7,81.8,348.8,81.8z"/>
									<path id="XMLID_719_" class="st32" d="M336.3,79.7L336.3,79.7c0.2,0.1,0.2,0,0.2,0L336.3,79.7z"/>
									<polygon id="XMLID_718_" class="st32" points="337.6,78.1 337.6,78.1 337.8,78.3 									"/>
									<path id="XMLID_717_" class="st32" d="M338.6,76.7c-0.1,0-0.1,0.1-0.2,0.2C338.5,76.7,338.8,77,338.6,76.7z"/>
								</g>
							</g>
						</g>
					</g>
				</g>
				<g id="XMLID_150_" class="st30">
					<ellipse id="XMLID_708_" class="st31" cx="368.8" cy="81.7" rx="6" ry="4.8"/>
					<g id="XMLID_528_">
						<g id="XMLID_532_">
							<g id="XMLID_533_">
								<g id="XMLID_534_">
									<path id="XMLID_707_" class="st32" d="M373.5,81.7c0,0-0.2,0-0.2,0C373.3,81.7,373.6,81.7,373.5,81.7z"/>
									<polygon id="XMLID_706_" class="st32" points="373.9,82.3 373.9,82.3 374.1,82.5 									"/>
									<path id="XMLID_705_" class="st32" d="M373.7,82.9c0.4,0.1,0-0.2,0.2-0.3l0.1,0l-0.3-0.1C373.8,82.6,373.9,82.9,373.7,82.9
										z"/>
									<path id="XMLID_704_" class="st32" d="M372.9,82.8C373,82.9,373,83,372.9,82.8C373,82.8,372.9,82.8,372.9,82.8
										C372.9,82.8,372.9,82.8,372.9,82.8z"/>
									<path id="XMLID_703_" class="st32" d="M372.9,82.8C372.9,82.8,372.8,82.8,372.9,82.8L372.9,82.8z"/>
									<path id="XMLID_702_" class="st32" d="M372.9,83.1l-0.1-0.1c-0.1,0-0.1,0-0.2,0C372.7,83,372.7,83,372.9,83.1z"/>
									<path id="XMLID_701_" class="st32" d="M373.1,83.3L373.1,83.3C373,83.2,373,83.2,373.1,83.3z"/>
									<path id="XMLID_700_" class="st32" d="M373,83.1l0.1,0.1C373.1,83.2,373.2,83.3,373,83.1C373.1,83.2,373,83.1,373,83.1z"/>
									<path id="XMLID_699_" class="st32" d="M373.1,83.1c0.1,0,0.2,0,0.2,0.1C373.3,83,373.1,82.9,373.1,83.1z"/>
									<path id="XMLID_698_" class="st32" d="M374.1,83.1l0.1,0l-0.1-0.1C374.2,83,374,83.1,374.1,83.1z"/>
									<path id="XMLID_697_" class="st32" d="M372.4,83.3c0.1,0.1,0.2,0.1,0.3,0.2l0-0.1C372.6,83.4,372.5,83.4,372.4,83.3z"/>
									<path id="XMLID_696_" class="st32" d="M372.7,83.5l0,0.2C372.8,83.6,372.8,83.5,372.7,83.5z"/>
									<path id="XMLID_695_" class="st32" d="M373.4,83.5c0,0-0.2-0.3-0.2-0.3S373.4,83.5,373.4,83.5L373.4,83.5z"/>
									<polygon id="XMLID_608_" class="st32" points="372.2,83.5 372.1,83.4 372.3,83.6 									"/>
									<path id="XMLID_607_" class="st32" d="M372.1,83.7c-0.1-0.1-0.2-0.2-0.2-0.3c0,0.1,0,0.2,0.1,0.3
										C371.9,83.6,372,83.6,372.1,83.7z"/>
									<path id="XMLID_606_" class="st32" d="M372,83.9c0,0,0-0.1,0-0.2C371.9,83.8,371.9,83.8,372,83.9z"/>
									<path id="XMLID_605_" class="st32" d="M372.6,83.7c0,0-0.1-0.1-0.2-0.1L372.6,83.7L372.6,83.7z"/>
									<path id="XMLID_604_" class="st32" d="M372.6,83.7L372.6,83.7C372.6,83.8,372.5,83.8,372.6,83.7
										C372.5,83.8,372.6,83.8,372.6,83.7z"/>
									<path id="XMLID_603_" class="st32" d="M372.6,83.7L372.6,83.7C372.6,83.7,372.6,83.7,372.6,83.7z"/>
									<path id="XMLID_602_" class="st32" d="M373.1,83.6c0.1,0.1,0.1,0.3,0.3,0.3C373.3,83.8,373.2,83.8,373.1,83.6z"/>
									<path id="XMLID_601_" class="st32" d="M372.8,83.9l0.1,0c0,0-0.1-0.1-0.1-0.1L372.8,83.9z"/>
									<polygon id="XMLID_600_" class="st32" points="372.9,84 372.8,83.9 372.8,83.9 									"/>
									<path id="XMLID_599_" class="st32" d="M372.2,84c0,0.1,0,0.1,0,0.2c0.1,0,0.1,0,0.2-0.1C372.3,84,372.3,83.9,372.2,84z"/>
									<path id="XMLID_598_" class="st32" d="M372.4,83.9L372.4,83.9C372.4,83.9,372.4,83.9,372.4,83.9z"/>
									<polygon id="XMLID_597_" class="st32" points="371.7,84.4 371.8,84.5 371.8,84.4 									"/>
									<path id="XMLID_596_" class="st32" d="M372.4,84.1c0.1,0,0-0.1,0-0.1C372.4,84,372.4,84.1,372.4,84.1
										C372.4,84.1,372.4,84.1,372.4,84.1z"/>
									<path id="XMLID_595_" class="st32" d="M371.9,84.1c0,0,0.1,0,0.1,0.1C372,84.1,371.9,84,371.9,84.1z"/>
									<path id="XMLID_594_" class="st32" d="M372.4,83.9L372.4,83.9C372.3,83.8,372.3,83.8,372.4,83.9z"/>
									<path id="XMLID_593_" class="st32" d="M372.4,83.9c0,0,0,0.1,0,0.1C372.4,84,372.4,83.9,372.4,83.9
										C372.4,83.9,372.4,83.9,372.4,83.9z"/>
									<path id="XMLID_592_" class="st32" d="M372.3,85.8c-0.1-0.2-0.1-0.4,0.2-0.3c0-0.2-0.4-0.7-0.7-1c0,0.1,0.1,0.1,0.1,0.3
										c0.1,0.1,0.3,0.1,0.4,0.3c-0.1,0.2-0.1,0-0.3-0.1c0.2,0.2,0,0.4,0.2,0.7l0.1-0.2C372.2,85.6,372.2,85.7,372.3,85.8z"/>
									<path id="XMLID_591_" class="st32" d="M372,84.4L372,84.4c0,0-0.1-0.1-0.2-0.2c0,0.1,0,0.2,0.1,0.3L372,84.4L372,84.4z"/>
									<path id="XMLID_590_" class="st32" d="M372.1,84.2c0.1,0.2,0.1,0.3,0.3,0.5c0.1-0.1,0-0.2,0-0.3
										C372.2,84.6,372.3,84.3,372.1,84.2C372.1,84.2,372.2,84.2,372.1,84.2c0-0.1,0-0.1-0.1-0.1l0,0l0,0l0,0
										C372.1,84.1,372.1,84.2,372.1,84.2L372.1,84.2C372.1,84.2,372.1,84.2,372.1,84.2C372,84.2,372.1,84.2,372.1,84.2l-0.1-0.1
										l0,0l-0.1,0.2C372,84.3,372.1,84.3,372.1,84.2z"/>
									<path id="XMLID_589_" class="st32" d="M373.7,84.3C373.7,84.3,373.6,84.3,373.7,84.3C373.6,84.3,373.6,84.4,373.7,84.3z"/>
									<path id="XMLID_588_" class="st32" d="M373.5,84.3c0,0-0.1-0.1,0-0.1c0.1,0,0.1,0.1,0.1,0.1c0-0.1,0-0.2-0.2-0.2l0,0
										c-0.1,0-0.4-0.1-0.4-0.1C373.2,84.1,373.3,84.2,373.5,84.3z"/>
									<path id="XMLID_587_" class="st32" d="M372.8,84.4l-0.1,0.2l0.2,0.1l-0.1-0.1C373,84.5,372.9,84.4,372.8,84.4z"/>
									<polygon id="XMLID_586_" class="st32" points="371.7,84.3 371.6,84.1 371.7,84.5 									"/>
									<polygon id="XMLID_585_" class="st32" points="371.5,84.5 371.4,84.3 371.4,84.4 									"/>
									<path id="XMLID_584_" class="st32" d="M362.8,78.2L362.8,78.2C362.8,78.2,362.8,78.2,362.8,78.2z"/>
									<path id="XMLID_583_" class="st32" d="M362.5,78.6L362.5,78.6C362.5,78.7,362.5,78.6,362.5,78.6z"/>
									<path id="XMLID_582_" class="st32" d="M366.4,84.7c0-0.2,0.1-0.5,0-0.3L366.4,84.7C366.4,84.6,366.4,84.6,366.4,84.7z"/>
									<path id="XMLID_581_" class="st32" d="M362.9,82.7L362.9,82.7c0,0,0.1,0,0.2,0C363,82.8,362.9,82.7,362.9,82.7z"/>
									<path id="XMLID_580_" class="st32" d="M362,82.9l0.1-0.2C362,82.8,362,82.8,362,82.9z"/>
									<path id="XMLID_579_" class="st32" d="M365,76.3l0-0.2C364.8,76.1,365,76.2,365,76.3z"/>
									<path id="XMLID_578_" class="st32" d="M369.4,85.2c-0.1-0.1-0.1-0.1-0.2-0.1C369.4,85.2,369.4,85.4,369.4,85.2z"/>
									<path id="XMLID_577_" class="st32" d="M364.6,79.8c0,0,0-0.1-0.1-0.1C364.5,79.8,364.6,79.8,364.6,79.8z"/>
									<path id="XMLID_576_" class="st32" d="M369.1,85.1C369.1,85.1,369.1,85.1,369.1,85.1c0.1,0,0.1,0,0.2,0
										C369.2,85,369.1,84.9,369.1,85.1z"/>
									<path id="XMLID_575_" class="st32" d="M374.5,77.9C374.5,77.9,374.5,77.9,374.5,77.9C374.5,77.9,374.5,77.9,374.5,77.9z"/>
									<path id="XMLID_574_" class="st32" d="M373.8,81.1C373.7,81.1,373.7,81.1,373.8,81.1C373.7,81.1,373.7,81.1,373.8,81.1z"/>
									<path id="XMLID_573_" class="st32" d="M370.7,84.7C370.7,84.7,370.7,84.7,370.7,84.7L370.7,84.7z"/>
									<path id="XMLID_572_" class="st32" d="M371.2,85.5c0,0,0,0.1,0,0.1C371.2,85.5,371.2,85.5,371.2,85.5z"/>
									<path id="XMLID_571_" class="st32" d="M368.6,86.5L368.6,86.5C368.6,86.5,368.6,86.5,368.6,86.5z"/>
									<path id="XMLID_570_" class="st32" d="M370.8,84.8C370.8,84.8,370.7,84.8,370.8,84.8C370.7,84.8,370.8,84.8,370.8,84.8z"/>
									<path id="XMLID_569_" class="st32" d="M370.8,84.7C370.8,84.7,370.8,84.7,370.8,84.7C370.8,84.7,370.8,84.6,370.8,84.7z"/>
									<path id="XMLID_568_" class="st32" d="M370.6,84.8C370.7,84.7,370.7,84.7,370.6,84.8C370.7,84.7,370.7,84.7,370.6,84.8
										C370.7,84.7,370.7,84.7,370.6,84.8z"/>
									<path id="XMLID_567_" class="st32" d="M369.6,76.2C369.6,76.2,369.6,76.2,369.6,76.2C369.6,76.2,369.6,76.2,369.6,76.2z"/>
									<polygon id="XMLID_566_" class="st32" points="364,85.9 364,85.9 364,85.9 									"/>
									<path id="XMLID_565_" class="st32" d="M363.7,85.9c0.3-0.1,0.3-0.1,0.3,0l0.3-0.6c0,0-0.2,0.1-0.3,0.3
										C363.9,85.8,363.7,85.9,363.7,85.9z"/>
									<path id="XMLID_558_" class="st32" d="M363.7,77.3l-0.3,0c-0.1-0.4,0.2-0.4-0.2-0.5c0.4,0.6-0.5,0.5,0,1.1l-0.2,0
										c0,0,0-0.1,0-0.1c-0.4-0.1,0.2,0.5,0,0.6c-0.1,0-0.2,0-0.2-0.1l0,0.3c0,0-0.1,0-0.1-0.1l-0.2,0.3l0,0
										c0.1,0.1,0.1,0.3,0.2,0.4c-0.1,0,0-0.1-0.1-0.1l0.1,0.2c-0.2,0-0.3-0.3-0.2-0.4c-0.7-0.2,0.1,0.2-0.5,0.4l0-0.2
										c-0.4-0.1-0.4,0.1-0.7,0.2c0.1,0,0.8-0.1,0.8,0.1c-0.1,0-0.1,0.1,0,0.3c-0.2-0.1-0.2,0-0.3,0.2l-0.3-0.1
										c0,0.2,0.2,0.2,0.3,0.4c-0.1,0.2-0.3,0.1-0.6,0.1c-0.1,0.3,0.5-0.1,0.4,0.3c-0.2,0.2-0.1,0.4,0.1,0.7
										c-0.1,0.1-0.2-0.1-0.3,0l0.3,0.2c0,0-0.1,0-0.1,0c0.1,0.1,0.3,0,0.4,0.2c0.4,0-0.5,0.4-0.1,0.6c-0.1,0.1-0.2,0-0.3,0
										c0.3,0.3,0.2,0.3,0.6,0.4l-0.2,0.2c0.2-0.2,0.5-0.1,0.8,0c0.1-0.1,0.2-0.1,0.2-0.2l0.2,0.1c0,0-0.2,0.1-0.3,0.1
										c0,0,0.1,0,0.1,0c-0.1,0.1-0.3,0.1-0.5,0.1c0.1,0,0.1-0.1,0.2-0.1c-0.2,0-0.4,0-0.6,0.1c0,0,0.1,0,0.1,0.1
										c-0.1,0-0.1,0-0.1,0c0,0,0,0,0.1,0l-0.3,0.2l0.1,0l-0.1,0.4c0.5,0.1,1,0.1,1.3,0.3c-0.3,0.1-0.4,0.2-0.7,0.4
										c0.2-0.3-0.3-0.2-0.3-0.4c0,0.1-0.1,0.2-0.2,0.2c0,0,0.4,0.2,0.5,0.2c-0.2,0.1-0.1,0.2-0.2,0.3c0.4-0.3,0.4,0.1,0.7,0.1
										c-0.1,0.1-0.3,0.2-0.4,0c-0.2,0.4,0.6-0.2,0.5,0.2c0,0,0-0.1-0.1,0c0.2,0,0.2,0.2,0.1,0.3l0,0c0.1,0.3,0.6,0.6,0.9,0.3
										c0,0-0.4,0.4-0.4,0.4c0,0,0.3-0.2,0.7-0.4c0.3-0.2,0.6-0.5,0.6-0.5c-0.3,0.3-0.7,1.1-1,1.1c0,0.1,0.1,0.2,0.3,0.2
										c0-0.1,0.2-0.5,0.3-0.5c-0.1,0.4,0,0.3-0.1,0.7c0-0.1,0.4-0.6,0.4-0.5c-0.1,0.1-0.3,0.5-0.4,0.5c0,0,0.1-0.1,0.3-0.2
										c0.1-0.1,0.3-0.2,0.3-0.2c-0.1,0.1-0.3,0.4-0.3,0.6c0-0.1,0.2,0.1,0.3,0.1l0-0.2c0.2,0.2,0.6-0.6,0.9-0.5
										c-0.1,0.1-0.4,0.7-0.3,0.8c0.2-0.2,0.8-1.2,1.1-1.4l0,0.2l0.2-0.1c-0.2,0.4-0.8,1.2-1.1,1.5c0.1,0.2,0,0.2,0.1,0.2
										c0,0.2-0.2,0.2-0.2,0.2c0,0,0.4,0.3,0.4,0.2c0.1-0.3,0.4-0.2,0.5-0.5c0,0-0.1,0.1-0.3,0.1c-0.1,0.1-0.3,0.1-0.3,0.1
										c0.1-0.3,0.5-0.9,0.8-0.7c0,0.2-0.2,0.6-0.2,0.7c0.1-0.1,0.3-0.1,0.3-0.1l-0.2,0.2c0.1,0.2,0.4-0.4,0.5,0
										c0.1,0,0.1,0.5,0.2,0.3c0-0.4,0.2-1.6,0.3-1.9c0,0,0.2,0.4,0.3,0.6c0.1,0.3-0.2,0.7-0.2,1c0-0.1,0.1-0.2,0.1-0.2
										c0.1,0.1-0.1,0.3,0.1,0.3c0.1-0.3,0.3,0.1,0.1-0.3c0.1-0.1,0.1,0.1,0.3,0.1c0-0.2,0.2-0.8,0.3-0.9c0,0.1,0,0.2,0,0.3
										c0.3,0,0.4,0.2,0.7,0.2c0,0.1,0.2,0.2,0.1,0.3c0-0.1,0.1-0.2,0.1-0.2c0.2,0.3-0.2,0.1,0,0.4c0-0.2,0.2-0.3,0.3-0.4
										c-0.1-0.3-0.3,0-0.4,0.1c0-0.4,0.1-0.9,0.3-1.1c0.2-0.1,0.1,0.3,0.1,0.2c0.4,0,0.1-0.8,0.5-0.6c0.2,0.2,0.1,0.5,0.2,0.7
										c-0.1,0.1-0.3-0.1-0.4-0.1l0.2,0.1c0,0.1-0.1,0.2-0.2,0.1c0.2,0.2,0.6-0.1,1,0c0-0.1,0.1-0.2,0-0.3l-0.1,0.1
										c-0.1-0.2,0.1-0.3-0.1-0.4c0.1-0.2,0.1-0.5,0.3-0.4l0.2,0.3c0-0.1-0.2-0.1-0.2,0c0-0.2,0.4,0.3,0.3-0.1l-0.2-0.2
										c0-0.2,0-0.6,0.2-0.5c-0.2-0.3,0,0-0.3-0.2c0.3,0.4-0.3,0.1,0,0.5c-0.3-0.4-0.2-0.1-0.5-0.4c0,0.1,0.1,0.2,0,0.2
										c0,0,0,0.1,0,0.1l0,0l0,0c0,0,0,0,0,0c0,0,0.1,0.1,0.1,0.1c0,0.2-0.1,0.3-0.2,0.4c-0.1,0,0-0.1-0.1-0.2l0,0.2
										c-0.1-0.2-0.3-0.3-0.2-0.5l-0.1,0c-0.1-0.1-0.2-0.1-0.3,0c-0.1,0-0.1,0.3-0.1,0.1l-0.2,0.2l0-0.1c-0.2,0-0.4,0.5-0.7,0
										c-0.1,0.1-0.1,0.1-0.3,0.1l0-0.2c-0.1,0.1-0.3-0.2-0.3,0c-0.1-0.5-0.4-0.1-0.6-0.3l0,0.3c-0.1,0-0.2,0-0.4,0.1l0,0.2
										c-0.2,0.2-0.3-0.2-0.5-0.3c0-0.1,0.1,0,0.1,0c-0.1-0.6-0.6,0.2-0.6-0.2c-0.1,0.1-0.1,0-0.1,0c0,0,0,0,0,0c0,0,0,0,0,0
										c0,0,0-0.1,0-0.1c0,0.1,0,0.1,0,0.1c0,0-0.1,0-0.2,0l0.1-0.2c0,0,0,0,0,0c0-0.1-0.1,0.1-0.1,0.3c0,0-0.1,0.1-0.1,0.1
										c0.1-0.4-0.2,0.1-0.1-0.4c-0.1,0.2-0.3,0-0.6,0.3c0,0,0-0.1,0.1-0.1c0-0.1-0.1-0.2-0.2-0.1l0.2-0.3l-0.4,0.3
										c0-0.2,0.1-0.3,0.3-0.5c-0.4,0.2-0.2,0-0.6,0.2l0.1-0.1c-0.1,0-0.3,0.1-0.2-0.1c0.2-0.4-0.5-0.6-0.3-1.1
										c-0.5,0.4,0.2-0.3-0.3,0c0.1-0.1,0.2-0.2,0.3-0.2c-0.2-0.1,0.1-0.3-0.3-0.2c0.1-0.1,0.2,0,0.3-0.1c0,0-0.1,0-0.1,0
										c0.1,0,0.1,0,0.2,0c-0.1-0.1-0.5,0-0.9,0.1c0.2-0.2,0.1-0.2-0.2-0.2c0.1-0.1,0.2-0.2,0.3-0.1c0-0.1,0.1-0.4-0.2-0.4
										c0.1,0,0-0.1,0-0.1c0-0.1,0-0.2,0-0.3l-0.1,0c-0.4-0.1-0.1-0.1-0.1-0.2l0,0c0.3-0.2-0.1-0.1,0.2-0.4l-0.2,0
										c-0.5-0.1,0.3-0.2,0.2-0.4l-0.2,0c-0.1-0.1,0.8,0,0.8,0c0,0,0.1,0,0.1,0.1c0.4-0.1-0.3-0.1-0.3-0.3c0.2,0,0.4,0.2,0.5,0.1
										c0.1,0-0.4-0.5,0-0.5c-0.1,0-0.3-0.1-0.3-0.2c0-0.1,0.6,0,0.3-0.3c0,0,0.1,0,0.1,0c0-0.1,0-0.3-0.1-0.5
										c0.6,0.5,0.1-0.7,0.7-0.1c0,0,0.2-0.2,0.2-0.2l0,0.1c0.2-0.1,0.1-0.3,0.1-0.4c0.1,0,0.1,0.1,0.1,0.1c0.3,0,0.3,0,0.3-0.5
										l0.1,0.2c0-0.2,0.5,0.2,0.6-0.2c0,0,0,0.1,0,0.1c0.2-0.4,0.8,0.5,0.7-0.4l0.1-0.3c-0.3,0,0-0.4-0.2-0.5
										c0.1-0.1,0.3,0.2,0.2,0.3l0,0c0,0.5,0.4,0.1,0.4,0.4c0.5-0.1,1,0.2,1.5,0.2l0-0.4l0.2,0c0,0.1,0,0.3-0.1,0.3
										c0,0.2,0.2-0.2,0.2-0.2c0.2,0.2-0.1,0.4-0.1,0.4l0.1,0l0,0c0.1-0.1,0.1-0.3,0.3-0.3c0.1,0.1,0,0.2,0,0.3c0,0,0,0,0,0
										l0.2,0.1l0-0.3c0.1-0.1,0.2,0.1,0.2-0.3c0,0.5,0.7,0.4,0.7,0.6c0.2-0.2,0.3-0.1,0.5,0c0-0.1,0.1-0.4,0.2-0.3
										c-0.3,0.6,0.1,0.4,0,0.9c0.1-0.3,0.4,0.1,0.5-0.4c0.1,0.1-0.1,0.2-0.1,0.4c0.4-0.1,0.4,0.5,0.6,0.6
										c0.1-0.1,0.1-0.2,0.3-0.3c0,0,0,0.1-0.1,0.2c-0.1,0.1-0.1,0.2-0.1,0.2c0.1,0,0.4-0.3,0.3,0c0-0.1,0.1-0.2,0.2-0.1
										c0.1,0.4,0.3,0.6,0.5,0.8c0.2,0.2,0.3,0.6-0.1,0.9c0.2-0.1,0.2-0.1,0.2,0c0,0,0.2,0,0.3-0.1c0,0-0.1,0.1-0.1,0.2
										c-0.1,0.1-0.1,0.1-0.1,0.1c0.3,0,0,0.3,0.4,0.3l-0.1-0.1c0.4,0.1,0.8-0.2,1.3-0.3c-0.4-0.1,0.6-0.6-0.1-0.7
										c0.1-0.1,0.2,0,0.3-0.1c-0.2,0-0.3-0.1-0.3-0.3l0.1,0c-0.2-0.4-0.1-0.7-0.3-1.2l-0.2,0.2c0-0.1,0-0.2,0-0.3
										c-0.4,0.1,0.1,0.3-0.3,0.4c0.4-0.4-0.4-0.6-0.1-1.1c-0.1-0.1-0.2,0.2-0.3,0.1l0.1-0.1l-0.2,0.1c-0.1-0.1,0-0.3,0.1-0.4
										c0,0,0.1,0,0.1,0c0-0.2-0.3-0.3-0.3-0.3l0.1,0.2c-0.4-0.2-0.8-0.7-1.3-0.7l0,0.1c-0.4,0-0.2-0.3-0.5-0.3l0,0
										c-0.1,0.1-0.2,0.1-0.3,0c0.1-0.1,0-0.3,0.1-0.4c-0.4,0.1-0.2,0.1-0.6,0.4l0-0.2c-0.1,0.1-0.2,0.2-0.3,0.2
										c0.2-0.1,0-0.3,0.2-0.5c-0.2-0.5-0.6,0.2-0.7-0.4c-0.3,0.5,0.2,0.4,0.1,0.5c0,0.2-0.2,0.3-0.3,0.3c-0.1,0,0-0.7-0.3-0.8
										c0,0,0,0,0.1,0c-0.1-0.2-0.2,0.1-0.4-0.1c-0.1,0.3-0.2,0-0.2,0.4l0.3-0.1c-0.2,0.1-0.4,0.5-0.6,0.3c0-0.1,0.1-0.2,0.2-0.2
										c-0.1-0.1-0.1,0.1-0.2-0.1c0.1-0.4,0.3-0.1,0.5-0.3c-0.1-0.2-0.4,0.3-0.2-0.2c-0.2,0.5-0.3-0.1-0.5,0.3l0-0.2
										c0,0-0.1,0.2-0.2,0.1l0.1-0.3c-0.2,0.3-0.3-0.3-0.5-0.1c0.3,0,0.1,0.3,0.2,0.5c-0.4,0.3-0.2-0.6-0.7-0.5
										c0.1,0,0.3,0.1,0.2,0.3c-0.1,0-0.2-0.1-0.3-0.3c-0.3,0.1,0.1,0.2,0,0.4c-0.1-0.3-0.1,0.1-0.3,0.3l0-0.2
										c-0.4-0.1,0,0.5-0.3,0.4l0.1-0.4l-0.1,0.1l0-0.3c-0.1,0.2-0.2,0.2-0.4,0.2c0.1,0.2,0.1,0.4-0.1,0.5c-0.1-0.1,0-0.2-0.2-0.2
										c0-0.2,0-0.4,0.2-0.2c0-0.1,0-0.2,0-0.2c-0.2-0.1-0.3,0-0.4,0.1c0,0,0.1,0,0.1,0l-0.2,0.4c-0.1-0.1-0.1-0.2,0-0.2
										c-0.1,0-0.1,0.2-0.1,0.2c0-0.2-0.1-0.4,0-0.5l-0.2,0.3c-0.1-0.1-0.2-0.2-0.2-0.3c-0.2,0-0.3,0.5-0.5,0.5c0,0,0,0.1,0,0.1
										c-0.2,0-0.5-0.1-0.6,0.3l-0.3-0.2c-0.1,0.2,0.4,0.3,0.2,0.6c-0.1,0.2-0.3-0.2-0.4-0.2c0,0.2,0.1,0.6-0.3,0.6
										C363.6,77.3,363.7,77.3,363.7,77.3z M362.2,79.4c0-0.1-0.1-0.2,0-0.2C362.4,79.4,362.3,79.4,362.2,79.4z M362.5,83.2
										c-0.1,0-0.1-0.1,0-0.2C362.6,83.1,362.6,83.1,362.5,83.2z M370.3,85.1C370.3,85.1,370.3,85.1,370.3,85.1
										C370.2,85,370.2,85,370.3,85.1z M370.5,85.1c0,0,0-0.1,0-0.1C370.4,85.1,370.4,85.1,370.5,85.1
										C370.4,85.2,370.4,85.2,370.5,85.1z M369.9,78L369.9,78C370,77.8,370,77.9,369.9,78z"/>
									<path id="XMLID_557_" class="st32" d="M362.1,82.9c0,0,0.1,0,0.1-0.1C362.2,82.8,362.1,82.8,362.1,82.9z"/>
									<polygon id="XMLID_556_" class="st32" points="365,76.3 365,76.3 365,76.3 									"/>
									<path id="XMLID_555_" class="st32" d="M367.7,87.4c0,0-0.1-0.1-0.1-0.1C367.6,87.3,367.7,87.4,367.7,87.4z"/>
									<path id="XMLID_554_" class="st32" d="M371.1,84.5L371.1,84.5c0,0.1,0,0.1,0.1,0.1C371.1,84.5,371.1,84.5,371.1,84.5z"/>
									<path id="XMLID_553_" class="st32" d="M372.6,85.4C372.6,85.3,372.7,85.3,372.6,85.4l0-0.2
										C372.5,85.3,372.5,85.4,372.6,85.4z"/>
									<path id="XMLID_552_" class="st32" d="M371.5,85.2c0.1,0.2,0.1,0.1,0.2,0c0,0,0,0,0,0C371.6,84.9,371.5,85,371.5,85.2z"/>
									<path id="XMLID_551_" class="st32" d="M371.7,85.2C371.7,85.2,371.7,85.1,371.7,85.2C371.7,85,371.7,85.1,371.7,85.2z"/>
									<path id="XMLID_550_" class="st32" d="M370.6,84.9c0,0-0.1-0.3,0-0.2C370.6,84.5,370.5,85.1,370.6,84.9z"/>
									<polygon id="XMLID_549_" class="st32" points="371.9,85.8 371.7,85.5 371.8,85.8 									"/>
									<path id="XMLID_548_" class="st32" d="M371.2,85.8l0.1,0c0,0,0-0.1,0-0.1C371.3,85.8,371.2,85.8,371.2,85.8z"/>
									<path id="XMLID_547_" class="st32" d="M371.3,85.8C371.4,85.8,371.4,85.7,371.3,85.8C371.4,85.7,371.4,85.7,371.3,85.8z"/>
									<polygon id="XMLID_546_" class="st32" points="371.7,85.9 371.7,85.9 371.6,85.9 									"/>
									<path id="XMLID_545_" class="st32" d="M369.8,86.1l-0.1,0.1c0,0.1,0,0.1,0.1,0.1C369.8,86.3,369.8,86.2,369.8,86.1z"/>
									<path id="XMLID_544_" class="st32" d="M370.4,86.8c-0.1,0-0.1-0.1-0.1-0.2l0.1,0.3L370.4,86.8z"/>
									<path id="XMLID_543_" class="st32" d="M369.9,86.9c0,0.1-0.2,0.3,0,0.2C369.9,87.1,370.1,87,369.9,86.9z"/>
									<polygon id="XMLID_542_" class="st32" points="367.6,86.5 367.6,86.5 367.7,86 									"/>
									<path id="XMLID_541_" class="st32" d="M365.2,87.1c0.1,0.2,0.2-0.3,0.3,0c0.1-0.1-0.1-0.2,0-0.3
										C365.3,86.8,365.3,86.7,365.2,87.1z"/>
									<path id="XMLID_540_" class="st32" d="M365.4,86.7C365.5,86.7,365.5,86.7,365.4,86.7C365.5,86.7,365.5,86.7,365.4,86.7z"/>
									<polygon id="XMLID_539_" class="st32" points="373.5,81.4 373.4,81.5 373.6,81.5 									"/>
									<path id="XMLID_538_" class="st32" d="M373.9,81.6l-0.3,0L373.9,81.6C373.9,81.6,373.8,81.6,373.9,81.6z"/>
									<path id="XMLID_537_" class="st32" d="M361.4,79.5L361.4,79.5c0.2,0.1,0.2,0,0.2,0L361.4,79.5z"/>
									<polygon id="XMLID_536_" class="st32" points="362.7,77.9 362.7,77.9 363,78 									"/>
									<path id="XMLID_535_" class="st32" d="M363.7,76.4c-0.1,0-0.1,0.1-0.2,0.2C363.7,76.5,364,76.7,363.7,76.4z"/>
								</g>
							</g>
						</g>
					</g>
				</g>
				<g id="XMLID_144_">
					<ellipse id="XMLID_149_" class="st15" cx="347.6" cy="74.5" rx="1.5" ry="2.2"/>
					<ellipse id="XMLID_148_" class="st15" cx="364.5" cy="74.5" rx="1.5" ry="2.2"/>
					<path id="XMLID_147_" class="st12" d="M360.9,70.1c0,0,6.8-4,10.1,3.7l0.3-0.1c0,0-1.2-5.8-6.2-6.5
						C365,67.2,361.9,67.6,360.9,70.1z"/>
					<path id="XMLID_146_" class="st12" d="M351.8,70.1c0,0-6.8-4-10.1,3.7l-0.3-0.1c0,0,1.2-5.8,6.2-6.5
						C347.6,67.3,350.8,67.6,351.8,70.1z"/>
					<path id="XMLID_145_" class="st17" d="M352.1,90.4c0,0,4.9,2.4,8.7-1.2c0,0-0.4,2.9-3,3.9C357.8,93.1,353.3,93.6,352.1,90.4z"
						/>
				</g>
				<path id="XMLID_141_" class="st33" d="M382.7,68.9C382.7,68.9,382.7,68.9,382.7,68.9c0-0.1-0.1-0.3-0.1-0.4c0-0.1,0-0.1,0-0.1
					l0,0c-5.9-13.7-16.7-14.8-20.6-14.7c0.1,0,0.1-0.1,0.2-0.1c0,0-9.5-5.3-21.4,1.5c0,0-6.8,4.7-9.8,13.4c0,0,0,0,0,0
					c0,0,0,0.1-0.1,0.2c-0.2,0.5-0.3,0.9-0.4,1.4c-1.6,5.4-6.4,22.8-3.4,29.5c0.1,0.2,0.2,0.4,0.3,0.6c0,0,8.8,24.1,31.4,24.7
					c0,0,19.7,1.2,28-23.8c0,0,0,0,0-0.1c0.2-0.3,0.3-0.5,0.5-0.9c0.1-0.2,0.2-0.4,0.3-0.6C390.3,92,383.8,72.2,382.7,68.9z
					 M356.2,100.3c0,0-6.3-6.3-11.9-9.7c2.8,0.1,6.1-0.5,9.8-2.5c0,0,2.2-1.2,2.7-3.4c0,0-3.9-3.2-8.7-0.2c0,0-3.8,2.6-9.7,2.5
					c-0.7-3.9-2.6-14.3-3-17.2c5.6-2.6,14.9-7.7,25.4-15.2c4,8.2,9.2,11.9,13.5,13.5l0.4,19c-5.6,0-9.2-2.5-9.2-2.5
					c-4.9-2.9-8.7,0.2-8.7,0.2c0.5,2.2,2.7,3.4,2.7,3.4c4.2,2.3,7.8,2.8,10.8,2.4C365.3,92.7,357.9,96.4,356.2,100.3z"/>
				<g id="XMLID_129_">
					<g id="XMLID_137_">
						<path id="XMLID_140_" class="st18" d="M377.6,51.9c-0.4,1.4,0.5,0.5-2.5,2.2c-4.2,2.4-15.3-5.1-21.1-5.1c-5.7,0-14.1,6.8-19,5
							c-0.8-0.3-1.8-0.4-1.5-2.8c1.8-12.7,12-18.4,21.8-18.4C365.4,32.8,381.2,40.1,377.6,51.9z"/>
						<path id="XMLID_139_" class="st19" d="M333.7,51.2c-0.3,2.4,0.5,2.3,1.5,2.8c2.3,1.2,6.1-1.5,9.6-2.7
							c-0.2-0.3-0.3-0.7-0.4-1.1c-1-3-4.2-6.3-2.6-9.1c1.6-2.8,8-5.2,9.6-7.9C342.9,34.6,335.2,40.4,333.7,51.2z"/>
						<path id="XMLID_138_" class="st19" d="M362.4,36.5c7.8,3.9,11.3,10.7,12.4,13.7c0.8,1.9,0.3,1-0.7,2.8c3.3,1.1,0,2.1,1.7,1.2
							c3-1.7,1.6,0.2,1.8-2.2c0.9-12.3-12.3-19-22.1-19c-0.5,0-1.1,0-1.6,0.1C357.8,34.1,359,34.8,362.4,36.5z"/>
					</g>
					<path id="XMLID_136_" class="st7" d="M329.6,42.1c0,0.7,6.1,17.5,6.1,17.5s24-9.7,40.8,0l5.6-17.7l-2.2-1.9
						c0,0-12.9,9-23.1-7.3l-2.4-0.7c0,0-5.8,16.3-23.1,8L329.6,42.1z"/>
					<circle id="XMLID_135_" class="st7" cx="329.1" cy="39.4" r="3.6"/>
					<circle id="XMLID_134_" class="st7" cx="355.8" cy="29.2" r="3.6"/>
					<circle id="XMLID_133_" class="st7" cx="383" cy="38.9" r="3.6"/>
					<polygon id="XMLID_132_" class="st34" points="340.8,45.1 338.7,49.4 342.5,52.3 344.5,48.1 					"/>
					<polygon id="XMLID_131_" class="st34" points="371.9,45 367.9,47.5 369.5,52 373.4,49.6 					"/>
					<polygon id="XMLID_130_" class="st34" points="356.3,41.7 352.2,46.8 356.5,51.9 360.4,46.9 					"/>
				</g>
			</g>
			<g id="XMLID_118_">
				<path id="XMLID_127_" class="st35" d="M373,156.8c-3.6-1.9-2.3-10.9-2.3-10.9c-1.5,0.9-8.1,1.3-15.5,1.5
					c-7.3-0.2-14-0.6-15.5-1.5c0,0,1.3,8.9-2.3,10.9c0,0,6.3,3.3,17.8,3.3C366.7,160.2,373,156.8,373,156.8z"/>
				<path id="XMLID_126_" class="st36" d="M370.4,145.5c-3.1-1.9-2-10.8-2-10.8c-1.3,0.9-6.9,1.3-13.2,1.5
					c-6.2-0.2-11.9-0.6-13.2-1.5c0,0,1.1,8.9-2,10.8c0,0,5.3,3.3,15.2,3.3C365.1,148.8,370.4,145.5,370.4,145.5z"/>
				<path id="XMLID_125_" class="st7" d="M369.6,128.6c-0.5-5.7-3.9-5.8-3.9-5.8c-7.1-2.5-10.1-6.7-10.1-6.7s-3,4.1-10.1,6.7
					c0,0-3.4,0.1-3.9,5.8l-0.2,4.5c0,0,14.5,5.4,28.5,0.3L369.6,128.6z"/>
				<path id="XMLID_124_" class="st37" d="M340.7,144.8c0,0,13.2,5.8,29.1,0.1c0,0,2,0.5,2,1.2c0,0-17.9,6.9-33.1-0.3
					C338.7,145.8,339.3,144.7,340.7,144.8z"/>
				<path id="XMLID_123_" class="st35" d="M369.6,128.6c-0.5-5.7-3.9-5.8-3.9-5.8c-7.1-2.5-10.1-6.7-10.1-6.7s-0.1,0.1-0.3,0.4
					c3.2,3.5,5.1,8.3,5.3,13.1c0,2-0.2,4-1.1,5.8c0,0.1-0.1,0.1-0.1,0.2c3.4-0.2,7-0.8,10.5-2.1L369.6,128.6z"/>
				<path id="XMLID_122_" class="st37" d="M341.3,133.1c0,0-0.8,0.4-0.4,1.8c0,0,19.1,4.6,29.4,0.4c0,0,1.1-2.2-0.5-2.2
					C369.8,133.1,364,136.6,341.3,133.1z"/>
				<ellipse id="XMLID_121_" class="st38" cx="346.1" cy="141.1" rx="2" ry="3.2"/>
				<ellipse id="XMLID_120_" class="st38" cx="355.6" cy="141.9" rx="2" ry="3.2"/>
				<ellipse id="XMLID_119_" class="st38" cx="364.2" cy="141.7" rx="2" ry="3.2"/>
			</g>
			<g id="XMLID_113_">
				<path id="XMLID_117_" class="st10" d="M341.3,148.8c0,0,2.2,19.3-3.6,26.9C337.7,175.7,328.9,160.3,341.3,148.8z"/>
				<path id="XMLID_116_" class="st29" d="M337.5,150.3l2.1,0c0,0,6.8-4.2,8.6-4.4c0,0,1.7-0.1,1.7,1.4c0,0,0.2,0.9-0.9,1.4
					c0,0-1.3,0.6-1.7,0.7l-0.5,0.4l7.5,0.1l3.7,0.1c0,0,1.3,0.5,0.5,1.7c0,0-0.8,0.5-1.6,0.4c0,0-5.2,0.2-5.7,0.2l-0.6,0.1
					c0,0-0.4,0.4,0.1,0.9l7.7,0.1c0,0,1.4-0.1,1.5,0.6c0,0,0.4,0.9-0.6,1.3l-4.7-0.1l-3.3-0.3c0,0-1,0.1-0.6,0.9
					c0,0,0.9,0.2,1.5,0.2l4,0.2c0,0,2.8-0.2,3.4,0.3c0,0,0.8,1.2,0.2,1.6c0,0-0.9,0.4-1.6,0.2l-6.7-0.2c0,0-1.2-0.2-1.1,0.7
					c0,0,0.4,0.6,1,0.6l4.7,0.1c0,0,1,0.6,0.5,1.4c0,0-0.4,0.6-1.7,0.3c0,0-8.1-0.2-8.9-0.6c0,0-3.6-0.2-5.8-2.1l-2.4-0.3
					C337.7,158.6,334.9,152,337.5,150.3z"/>
				<path id="XMLID_115_" class="st4" d="M341.3,148.8c0,0-9.2,18.2-3.4,26.9c0,0-19.6-6.9-23.6-11.9c0,0,2.9-4.6,15.5-18
					L341.3,148.8z"/>
				<path id="XMLID_114_" class="st12" d="M337.9,147.9c0,0-10.5,10.7-6.1,25.5l-4.4-2c0,0-3.8-16.8,7.6-24.2L337.9,147.9z"/>
			</g>
			<g id="XMLID_108_">
				<path id="XMLID_112_" class="st10" d="M366.8,151.7c0,0-2.2,19.3,3.6,26.9C370.4,178.6,379.2,163.2,366.8,151.7z"/>
				<path id="XMLID_111_" class="st39" d="M370.6,153.3l-2.1,0c0,0-6.8-4.2-8.6-4.4c0,0-1.7-0.1-1.7,1.4c0,0-0.2,0.9,0.9,1.4
					c0,0,1.3,0.6,1.7,0.7l0.5,0.4l-7.5,0.1l-3.7,0.1c0,0-1.3,0.5-0.5,1.7c0,0,0.8,0.5,1.6,0.4c0,0,5.2,0.2,5.7,0.2l0.6,0.1
					c0,0,0.4,0.4-0.1,0.9l-7.7,0.1c0,0-1.4-0.1-1.5,0.6c0,0-0.4,0.9,0.6,1.3l4.7-0.1l3.3-0.3c0,0,1,0.1,0.6,0.9c0,0-0.9,0.2-1.5,0.2
					l-4,0.2c0,0-2.8-0.2-3.4,0.3c0,0-0.8,1.2-0.2,1.6c0,0,0.9,0.4,1.6,0.2l6.7-0.2c0,0,1.2-0.2,1.1,0.7c0,0-0.4,0.6-1,0.6l-4.7,0.1
					c0,0-1,0.6-0.5,1.4c0,0,0.4,0.6,1.7,0.3c0,0,8.1-0.2,8.9-0.6c0,0,3.6-0.2,5.8-2.1l3.1-0.1C371.2,161.6,373.2,154.9,370.6,153.3z
					"/>
				<path id="XMLID_110_" class="st4" d="M366.8,151.7c0,0,9.2,18.2,3.4,26.9c0,0,19.3-6,24.8-12.6c0,0-2-4.9-14.6-17.9L366.8,151.7
					z"/>
				<path id="XMLID_109_" class="st12" d="M372.2,150.2c0,0,10.5,10.7,6.1,25.5l4.4-2c0,0,3.8-16.8-7.6-24.2L372.2,150.2z"/>
			</g>
		</g>
	</g>
	<g id="XMLID_41_">
		<ellipse id="XMLID_105_" class="st0" cx="66.7" cy="245.3" rx="66.7" ry="11.5"/>
		<g id="XMLID_42_">
			<path id="XMLID_104_" class="st40" d="M47.7,93.6c0,0-23.7,17.1-30.2,46.6c0,0-10.6,52.8-6.6,77.9c0,0,1,23.4,2.2,29.5l106.3-1.1
				c0,0,7.3-69.2-0.4-99.8c0,0-15.7-49.2-33.9-54.6L47.7,93.6z"/>
			<path id="XMLID_103_" class="st6" d="M26.6,165.7c0,0,34.2,16.4,86.7,0c0,0,10.9,60.8,3.3,80.1l-100.9,0.7
				C15.6,246.5,2.5,187.5,26.6,165.7z"/>
			<path id="XMLID_102_" class="st3" d="M12.4,226.5c0,0,75.4,7.6,110-2.2l-2.9,23.6l-106.4-0.3L12.4,226.5z"/>
			<path id="XMLID_101_" class="st5" d="M32.8,156.8c0,0-9,76.5,2.9,88.8l1.8,2l-25.1,0.1C12.3,247.7,4.6,170.9,32.8,156.8z"/>
			<path id="XMLID_100_" class="st5" d="M102,158.2c0,0,8.7,76-3.2,88.4l-1,1.2l24.8-0.2C122.6,247.6,130.2,172.3,102,158.2z"/>
			<g id="XMLID_93_">
				<path id="XMLID_99_" class="st41" d="M69.1,241.8c-3,0-5.5,2.5-6.3,5.9c4.2,0,8.4,0,12.6,0C74.6,244.3,72.1,241.8,69.1,241.8z"
					/>
				<path id="XMLID_98_" class="st41" d="M54.1,245.5c0-5.2-3.4-9.5-7.5-9.5c-4.2,0-7.5,4.2-7.5,9.5c0,0.7,0.1,1.4,0.2,2.1
					c4.6,0,9.5,0,14.7,0C54.1,247,54.1,246.2,54.1,245.5z"/>
				<path id="XMLID_97_" class="st41" d="M96.2,244.7c0-4.6-2.9-8.2-6.5-8.2c-3.6,0-6.5,3.7-6.5,8.2c0,1.1,0.2,2.1,0.5,3
					c4.2,0,8.3,0,12.2,0C96,246.8,96.2,245.8,96.2,244.7z"/>
				<path id="XMLID_96_" class="st6" d="M39.1,245.5c0-5.2,3.4-9.5,7.5-9.5c4.2,0,7.5,4.2,7.5,9.5c0,0.7-0.1,1.5-0.2,2.2
					c0.3,0,0.6,0,0.9,0c0.3-1.2,0.5-2.5,0.5-3.8c0-6.2-4-11.2-8.9-11.2s-8.9,5-8.9,11.2c0,1.3,0.2,2.6,0.5,3.8c0.4,0,0.7,0,1.1,0
					C39.1,246.9,39.1,246.2,39.1,245.5z"/>
				<path id="XMLID_95_" class="st6" d="M83.1,244.7c0-4.6,2.9-8.2,6.5-8.2c3.6,0,6.5,3.7,6.5,8.2c0,1.1-0.2,2.1-0.5,3
					c0.2,0,0.4,0,0.6,0c0.6-1.3,0.9-2.9,0.9-4.5c0-5.4-3.4-9.7-7.7-9.7c-4.3,0-7.7,4.3-7.7,9.7c0,1.6,0.3,3.1,0.9,4.5
					c0.3,0,0.6,0,0.9,0C83.3,246.8,83.1,245.8,83.1,244.7z"/>
				<path id="XMLID_94_" class="st6" d="M60.9,245.7c0-5.2,3.4-9.5,7.5-9.5c4.2,0,7.5,4.2,7.5,9.5c0,0.7-0.1,1.5-0.2,2.2
					c0.3,0,0.6,0,0.9,0c0.3-1.2,0.5-2.5,0.5-3.8c0-6.2-4-11.2-8.9-11.2s-8.9,5-8.9,11.2c0,1.3,0.2,2.6,0.5,3.8c0.4,0,0.7,0,1.1,0
					C61,247.1,60.9,246.4,60.9,245.7z"/>
			</g>
			<g id="XMLID_90_">
				<path id="XMLID_92_" class="st27" d="M65.4,106.1c0,0-0.3,18.2-36,55.7c0,0-22.8,27.7-10,86H12c0,0-5.6-39,1-87.1
					c0,0,5.8-52.1,34.2-67.4c0,0,12.4,3.6,18.6,11.3L65.4,106.1z"/>
				<path id="XMLID_91_" class="st27" d="M69.8,105.9c0,0,0.1,18.4,35.8,56c0,0,22.4,27.5,9.7,85.8h7.4c0,0,6.1-39.1-0.5-87.1
					c0,0-5.8-52.1-34.2-67.4c0,0-12.4,3.6-18.6,11.3L69.8,105.9z"/>
			</g>
			<g id="XMLID_77_">
				<polygon id="XMLID_89_" class="st42" points="68.1,118 56,136.2 57.8,139.1 81,136.9 				"/>
				<polygon id="XMLID_88_" class="st43" points="57.2,134.5 64.6,126 68.5,134 72.6,126.4 81,136.9 59,140.3 55.3,136.2 				"/>
				<ellipse id="XMLID_87_" class="st43" cx="64.4" cy="126.5" rx="1.6" ry="1.6"/>
				<ellipse id="XMLID_86_" class="st43" cx="71.8" cy="126.5" rx="1.6" ry="1.6"/>
				<polygon id="XMLID_85_" class="st44" points="52.5,133.1 59.2,163.6 77.1,163.2 83.9,132.9 80.5,136.2 74.3,131.6 72.9,131.5
					68.5,137.1 62.8,131 61.5,131.5 57.2,137.1 53,132.8 				"/>
				<circle id="XMLID_84_" class="st45" cx="52.4" cy="131.7" r="1.8"/>
				<circle id="XMLID_83_" class="st45" cx="62.4" cy="130" r="1.8"/>
				<circle id="XMLID_82_" class="st45" cx="73.4" cy="130" r="1.8"/>
				<circle id="XMLID_81_" class="st45" cx="84.4" cy="131.3" r="1.8"/>
				<circle id="XMLID_80_" class="st45" cx="68.4" cy="117.6" r="1.8"/>
				<polygon id="XMLID_79_" class="st46" points="60.7,141.9 62.6,137.2 64.5,141.7 62.7,144.2 				"/>
				<polygon id="XMLID_78_" class="st46" points="72,141.9 73.9,137.2 75.8,141.7 74,144.2 				"/>
			</g>
			<g id="XMLID_72_">
				<path id="XMLID_76_" class="st47" d="M54.6,149.3c0,0,2.2,19.3-3.6,26.9C51,176.2,42.2,160.8,54.6,149.3z"/>
				<path id="XMLID_75_" class="st48" d="M50.8,150.8l2.1,0c0,0,6.8-4.2,8.6-4.4c0,0,1.7-0.1,1.7,1.4c0,0,0.2,0.9-0.9,1.4
					c0,0-1.3,0.6-1.7,0.7l-0.5,0.4l7.5,0.1l3.7,0.1c0,0,1.3,0.5,0.5,1.7c0,0-0.8,0.5-1.6,0.4c0,0-5.2,0.2-5.7,0.2l-0.6,0.1
					c0,0-0.4,0.4,0.1,0.9l7.7,0.1c0,0,1.4-0.1,1.5,0.6c0,0,0.4,0.9-0.6,1.3l-4.7-0.1l-3.3-0.3c0,0-1,0.1-0.6,0.9
					c0,0,0.9,0.2,1.5,0.2l4,0.2c0,0,2.8-0.2,3.4,0.3c0,0,0.8,1.2,0.2,1.6c0,0-0.9,0.4-1.6,0.2l-6.7-0.2c0,0-1.2-0.2-1.1,0.7
					c0,0,0.4,0.6,1,0.6l4.7,0.1c0,0,1,0.6,0.5,1.4c0,0-0.4,0.6-1.7,0.3c0,0-8.1-0.2-8.9-0.6c0,0-3.6-0.2-5.8-2.1L51,159
					C51,159,48.2,152.5,50.8,150.8z"/>
				<path id="XMLID_74_" class="st49" d="M54.6,149.3c0,0-9.2,18.2-3.4,26.9c0,0-19.6-6.9-23.6-11.9c0,0,2.9-4.6,15.5-18L54.6,149.3
					z"/>
				<path id="XMLID_73_" class="st12" d="M51.2,148.4c0,0-10.5,10.7-6.1,25.5l-4.4-2c0,0-3.8-16.8,7.6-24.2L51.2,148.4z"/>
			</g>
			<g id="XMLID_67_">
				<path id="XMLID_71_" class="st47" d="M80.1,151.7c0,0-2.2,19.3,3.6,26.9C83.8,178.6,92.5,163.2,80.1,151.7z"/>
				<path id="XMLID_70_" class="st50" d="M84,153.3l-2.1,0c0,0-6.8-4.2-8.6-4.4c0,0-1.7-0.1-1.7,1.4c0,0-0.2,0.9,0.9,1.4
					c0,0,1.3,0.6,1.7,0.7l0.5,0.4l-7.5,0.1l-3.7,0.1c0,0-1.3,0.5-0.5,1.7c0,0,0.8,0.5,1.6,0.4c0,0,5.2,0.2,5.7,0.2l0.6,0.1
					c0,0,0.4,0.4-0.1,0.9l-7.7,0.1c0,0-1.4-0.1-1.5,0.6c0,0-0.4,0.9,0.6,1.3l4.7-0.1l3.3-0.3c0,0,1,0.1,0.6,0.9c0,0-0.9,0.2-1.5,0.2
					l-4,0.2c0,0-2.8-0.2-3.4,0.3c0,0-0.8,1.2-0.2,1.6c0,0,0.9,0.4,1.6,0.2l6.7-0.2c0,0,1.2-0.2,1.1,0.7c0,0-0.4,0.6-1,0.6l-4.7,0.1
					c0,0-1,0.6-0.5,1.4c0,0,0.4,0.6,1.7,0.3c0,0,8.1-0.2,8.9-0.6c0,0,3.6-0.2,5.8-2.1l3.1-0.1C84.5,161.6,86.6,154.9,84,153.3z"/>
				<path id="XMLID_69_" class="st49" d="M80.1,151.7c0,0,9.2,18.2,3.4,26.9c0,0,19.3-6,24.8-12.6c0,0-2-4.9-14.6-17.9L80.1,151.7z"
					/>
				<path id="XMLID_68_" class="st12" d="M85.5,150.2c0,0,10.5,10.7,6.1,25.5l4.4-2c0,0,3.8-16.8-7.6-24.2L85.5,150.2z"/>
			</g>
			<path id="XMLID_66_" class="st51" d="M30.9,181.3c0,0,15.4,46.8,45.9,47.7l-46.6-1.1C30.2,227.9,29.1,188.6,30.9,181.3z"/>
			<g id="XMLID_43_">
				<g id="XMLID_52_">
					<ellipse id="XMLID_65_" class="st50" cx="67.4" cy="80.6" rx="24.8" ry="24.2"/>
					<g id="XMLID_64_" class="st30">
						<ellipse id="XMLID_526_" class="st31" cx="55.2" cy="87.2" rx="6" ry="4.8"/>
						<g id="XMLID_431_">
							<g id="XMLID_435_">
								<g id="XMLID_436_">
									<g id="XMLID_437_">
										<path id="XMLID_525_" class="st32" d="M59.9,87.2c0,0-0.2,0-0.2,0C59.7,87.2,60,87.2,59.9,87.2z"/>
										<polygon id="XMLID_524_" class="st32" points="60.3,87.9 60.2,87.8 60.4,88 										"/>
										<path id="XMLID_523_" class="st32" d="M60.1,88.5c0.4,0.1,0-0.2,0.2-0.3l0.1,0L60.1,88C60.1,88.2,60.3,88.4,60.1,88.5z"/>
										<path id="XMLID_522_" class="st32" d="M59.3,88.4C59.4,88.4,59.3,88.5,59.3,88.4C59.3,88.3,59.3,88.3,59.3,88.4
											C59.3,88.3,59.3,88.4,59.3,88.4z"/>
										<path id="XMLID_521_" class="st32" d="M59.3,88.3C59.3,88.3,59.2,88.3,59.3,88.3L59.3,88.3z"/>
										<path id="XMLID_520_" class="st32" d="M59.2,88.6l-0.1-0.1c-0.1,0-0.1,0-0.2,0C59,88.5,59.1,88.5,59.2,88.6z"/>
										<path id="XMLID_519_" class="st32" d="M59.4,88.8L59.4,88.8C59.4,88.7,59.4,88.7,59.4,88.8z"/>
										<path id="XMLID_518_" class="st32" d="M59.3,88.6l0.1,0.1C59.5,88.8,59.6,88.8,59.3,88.6C59.5,88.7,59.4,88.7,59.3,88.6z"
											/>
										<path id="XMLID_517_" class="st32" d="M59.4,88.6c0.1,0,0.2,0,0.2,0.1C59.7,88.5,59.5,88.4,59.4,88.6z"/>
										<path id="XMLID_516_" class="st32" d="M60.4,88.6l0.1,0l-0.1-0.1C60.5,88.6,60.3,88.6,60.4,88.6z"/>
										<path id="XMLID_515_" class="st32" d="M58.8,88.8c0.1,0.1,0.2,0.1,0.3,0.2l0-0.1C59,88.9,58.9,88.9,58.8,88.8z"/>
										<path id="XMLID_514_" class="st32" d="M59.1,89l0,0.2C59.2,89.1,59.1,89.1,59.1,89z"/>
										<path id="XMLID_513_" class="st32" d="M59.8,89c0,0-0.2-0.3-0.2-0.3S59.7,89.1,59.8,89L59.8,89z"/>
										<polygon id="XMLID_511_" class="st32" points="58.6,89 58.5,88.9 58.6,89.1 										"/>
										<path id="XMLID_510_" class="st32" d="M58.5,89.2c-0.1-0.1-0.2-0.2-0.2-0.3c0,0.1,0,0.2,0.1,0.3
											C58.3,89.2,58.3,89.1,58.5,89.2z"/>
										<path id="XMLID_509_" class="st32" d="M58.3,89.4c0,0,0-0.1,0-0.2C58.3,89.3,58.3,89.3,58.3,89.4z"/>
										<path id="XMLID_508_" class="st32" d="M59,89.2c0,0-0.1-0.1-0.2-0.1L59,89.2L59,89.2z"/>
										<path id="XMLID_507_" class="st32" d="M59,89.3L59,89.3C58.9,89.3,58.9,89.3,59,89.3C58.9,89.3,58.9,89.3,59,89.3z"/>
										<path id="XMLID_506_" class="st32" d="M59,89.2L59,89.2C59,89.3,59,89.3,59,89.2z"/>
										<path id="XMLID_505_" class="st32" d="M59.4,89.1c0.1,0.1,0.1,0.3,0.3,0.3C59.7,89.3,59.5,89.3,59.4,89.1z"/>
										<path id="XMLID_504_" class="st32" d="M59.2,89.4l0.1,0c0,0-0.1-0.1-0.1-0.1L59.2,89.4z"/>
										<polygon id="XMLID_503_" class="st32" points="59.2,89.5 59.2,89.4 59.2,89.4 										"/>
										<path id="XMLID_502_" class="st32" d="M58.6,89.5c0,0.1,0,0.1,0,0.2c0.1,0,0.1,0,0.2-0.1C58.7,89.6,58.6,89.4,58.6,89.5z"
											/>
										<path id="XMLID_501_" class="st32" d="M58.8,89.4L58.8,89.4C58.8,89.4,58.8,89.4,58.8,89.4z"/>
										<polygon id="XMLID_500_" class="st32" points="58.1,90 58.1,90 58.1,90 										"/>
										<path id="XMLID_499_" class="st32" d="M58.8,89.6c0.1,0,0-0.1,0-0.1C58.8,89.6,58.8,89.6,58.8,89.6
											C58.7,89.6,58.8,89.7,58.8,89.6z"/>
										<path id="XMLID_498_" class="st32" d="M58.3,89.6c0,0,0.1,0,0.1,0.1C58.4,89.6,58.3,89.5,58.3,89.6z"/>
										<path id="XMLID_497_" class="st32" d="M58.7,89.4L58.7,89.4C58.7,89.3,58.7,89.4,58.7,89.4z"/>
										<path id="XMLID_496_" class="st32" d="M58.7,89.4c0,0,0,0.1,0,0.1C58.8,89.5,58.8,89.5,58.7,89.4
											C58.8,89.4,58.8,89.4,58.7,89.4z"/>
										<path id="XMLID_495_" class="st32" d="M58.7,91.3c-0.1-0.2-0.1-0.4,0.2-0.3c0-0.2-0.4-0.7-0.7-1c0,0.1,0.1,0.1,0.1,0.3
											c0.1,0.1,0.3,0.1,0.4,0.3c-0.1,0.2-0.1,0-0.3-0.1c0.2,0.2,0,0.4,0.2,0.7l0.1-0.2C58.6,91.2,58.6,91.3,58.7,91.3z"/>
										<path id="XMLID_494_" class="st32" d="M58.3,89.9L58.3,89.9c0,0-0.1-0.1-0.2-0.2c0,0.1,0,0.2,0.1,0.3L58.3,89.9L58.3,89.9
											z"/>
										<path id="XMLID_493_" class="st32" d="M58.5,89.8c0.1,0.2,0.1,0.3,0.3,0.5c0.1-0.1,0-0.2,0-0.3
											C58.6,90.1,58.7,89.8,58.5,89.8C58.5,89.7,58.5,89.7,58.5,89.8c0-0.1,0-0.1-0.1-0.1l0,0l0,0l0,0
											C58.5,89.7,58.5,89.7,58.5,89.8L58.5,89.8C58.5,89.7,58.5,89.7,58.5,89.8C58.4,89.7,58.4,89.7,58.5,89.8l-0.1-0.1l0,0
											l-0.1,0.2C58.4,89.9,58.4,89.8,58.5,89.8z"/>
										<path id="XMLID_492_" class="st32" d="M60,89.9C60,89.8,60,89.8,60,89.9C60,89.9,60,89.9,60,89.9z"/>
										<path id="XMLID_491_" class="st32" d="M59.9,89.8c0,0-0.1-0.1,0-0.1c0.1,0,0.1,0.1,0.1,0.1c0-0.1,0-0.2-0.2-0.2l0,0
											c-0.1,0-0.4-0.1-0.4-0.1C59.6,89.7,59.7,89.8,59.9,89.8z"/>
										<path id="XMLID_490_" class="st32" d="M59.2,89.9l-0.1,0.2l0.2,0.1l-0.1-0.1C59.4,90.1,59.2,90,59.2,89.9z"/>
										<polygon id="XMLID_489_" class="st32" points="58,89.9 57.9,89.7 58,90 										"/>
										<polygon id="XMLID_488_" class="st32" points="57.9,90 57.8,89.8 57.8,89.9 										"/>
										<path id="XMLID_487_" class="st32" d="M49.2,83.7L49.2,83.7C49.2,83.7,49.2,83.7,49.2,83.7z"/>
										<path id="XMLID_486_" class="st32" d="M48.9,84.2L48.9,84.2C48.9,84.2,48.9,84.1,48.9,84.2z"/>
										<path id="XMLID_485_" class="st32" d="M52.8,90.2c0-0.2,0.1-0.5,0-0.3L52.8,90.2C52.7,90.1,52.8,90.1,52.8,90.2z"/>
										<path id="XMLID_484_" class="st32" d="M49.3,88.3L49.3,88.3c0,0,0.1,0,0.2,0C49.4,88.3,49.3,88.3,49.3,88.3z"/>
										<path id="XMLID_483_" class="st32" d="M48.3,88.4l0.1-0.2C48.4,88.3,48.4,88.4,48.3,88.4z"/>
										<path id="XMLID_482_" class="st32" d="M51.4,81.8l0-0.2C51.2,81.6,51.3,81.7,51.4,81.8z"/>
										<path id="XMLID_481_" class="st32" d="M55.8,90.7c-0.1-0.1-0.1-0.1-0.2-0.1C55.7,90.7,55.8,90.9,55.8,90.7z"/>
										<path id="XMLID_480_" class="st32" d="M51,85.4c0,0,0-0.1-0.1-0.1C50.9,85.3,50.9,85.3,51,85.4z"/>
										<path id="XMLID_479_" class="st32" d="M55.5,90.6C55.5,90.6,55.5,90.6,55.5,90.6c0.1,0,0.1,0,0.2,0
											C55.6,90.5,55.5,90.4,55.5,90.6z"/>
										<path id="XMLID_478_" class="st32" d="M60.9,83.4C60.9,83.4,60.9,83.4,60.9,83.4C60.9,83.4,60.9,83.4,60.9,83.4z"/>
										<path id="XMLID_477_" class="st32" d="M60.1,86.6C60.1,86.6,60.1,86.6,60.1,86.6C60.1,86.6,60.1,86.6,60.1,86.6z"/>
										<path id="XMLID_476_" class="st32" d="M57.1,90.2C57.1,90.2,57.1,90.2,57.1,90.2L57.1,90.2z"/>
										<path id="XMLID_475_" class="st32" d="M57.6,91c0,0,0,0.1,0,0.1C57.6,91.1,57.6,91,57.6,91z"/>
										<path id="XMLID_474_" class="st32" d="M55,92L55,92C55,92,55,92,55,92z"/>
										<path id="XMLID_473_" class="st32" d="M57.2,90.3C57.1,90.3,57.1,90.3,57.2,90.3C57.1,90.3,57.1,90.3,57.2,90.3z"/>
										<path id="XMLID_472_" class="st32" d="M57.1,90.2C57.1,90.2,57.2,90.2,57.1,90.2C57.2,90.2,57.1,90.2,57.1,90.2z"/>
										<path id="XMLID_471_" class="st32" d="M57,90.3C57,90.3,57.1,90.3,57,90.3C57.1,90.3,57.1,90.3,57,90.3
											C57.1,90.3,57,90.3,57,90.3z"/>
										<path id="XMLID_470_" class="st32" d="M55.9,81.7C55.9,81.7,55.9,81.8,55.9,81.7C56,81.7,56,81.7,55.9,81.7z"/>
										<polygon id="XMLID_469_" class="st32" points="50.4,91.5 50.4,91.5 50.4,91.4 										"/>
										<path id="XMLID_468_" class="st32" d="M50.1,91.4c0.3-0.1,0.3-0.1,0.3,0l0.3-0.6c0,0-0.2,0.1-0.3,0.3
											C50.2,91.3,50.1,91.4,50.1,91.4z"/>
										<path id="XMLID_461_" class="st32" d="M50.1,82.8l-0.3,0c-0.1-0.4,0.2-0.4-0.2-0.5c0.4,0.6-0.5,0.5,0,1.1l-0.2,0
											c0,0,0-0.1,0-0.1c-0.4-0.1,0.2,0.5,0,0.6c-0.1,0-0.2,0-0.2-0.1l0,0.3c0,0-0.1,0-0.1-0.1L49,84.2l0,0
											c0.1,0.1,0.1,0.3,0.2,0.4c-0.1,0,0-0.1-0.1-0.1l0.1,0.2c-0.2,0-0.3-0.3-0.2-0.4c-0.7-0.2,0.1,0.2-0.5,0.4l0-0.2
											c-0.4-0.1-0.4,0.1-0.7,0.2c0.1,0,0.8-0.1,0.8,0.1c-0.1,0-0.1,0.1,0,0.3c-0.2-0.1-0.2,0-0.3,0.2l-0.3-0.1
											c0,0.2,0.2,0.2,0.3,0.4c-0.1,0.2-0.3,0.1-0.6,0.1c-0.1,0.3,0.5-0.1,0.4,0.3c-0.2,0.2-0.1,0.4,0.1,0.7
											c-0.1,0.1-0.2-0.1-0.3,0l0.3,0.2c0,0-0.1,0-0.1,0c0.1,0.1,0.3,0,0.4,0.2c0.4,0-0.5,0.4-0.1,0.6c-0.1,0.1-0.2,0-0.3,0
											c0.3,0.3,0.2,0.3,0.6,0.4l-0.2,0.2c0.2-0.2,0.5-0.1,0.8,0c0.1-0.1,0.2-0.1,0.2-0.2l0.2,0.1c0,0-0.2,0.1-0.3,0.1
											c0,0,0.1,0,0.1,0c-0.1,0.1-0.3,0.1-0.5,0.1c0.1,0,0.1-0.1,0.2-0.1c-0.2,0-0.4,0-0.6,0.1c0,0,0.1,0,0.1,0.1
											c-0.1,0-0.1,0-0.1,0c0,0,0,0,0.1,0l-0.3,0.2l0.1,0L48.4,89c0.5,0.1,1,0.1,1.3,0.3c-0.3,0.1-0.4,0.2-0.7,0.4
											c0.2-0.3-0.3-0.2-0.3-0.4c0,0.1-0.1,0.2-0.2,0.2c0,0,0.4,0.2,0.5,0.2c-0.2,0.1-0.1,0.2-0.2,0.3c0.4-0.3,0.4,0.1,0.7,0.1
											c-0.1,0.1-0.3,0.2-0.4,0c-0.2,0.4,0.6-0.2,0.5,0.2c0,0,0-0.1-0.1,0c0.2,0,0.2,0.2,0.1,0.3l0,0c0.1,0.3,0.6,0.6,0.9,0.3
											c0,0-0.4,0.4-0.4,0.4c0,0,0.3-0.2,0.7-0.4c0.3-0.2,0.6-0.5,0.6-0.5c-0.3,0.3-0.7,1.1-1,1.1c0,0.1,0.1,0.2,0.3,0.2
											c0-0.1,0.2-0.5,0.3-0.5c-0.1,0.4,0,0.3-0.1,0.7c0-0.1,0.4-0.6,0.4-0.5c-0.1,0.1-0.3,0.5-0.4,0.5c0,0,0.1-0.1,0.3-0.2
											c0.1-0.1,0.3-0.2,0.3-0.2c-0.1,0.1-0.3,0.4-0.3,0.6c0-0.1,0.2,0.1,0.3,0.1l0-0.2c0.2,0.2,0.6-0.6,0.9-0.5
											c-0.1,0.1-0.4,0.7-0.3,0.8c0.2-0.2,0.8-1.2,1.1-1.4l0,0.2l0.2-0.1c-0.2,0.4-0.8,1.2-1.1,1.5c0.1,0.2,0,0.2,0.1,0.2
											c0,0.2-0.2,0.2-0.2,0.2c0,0,0.4,0.3,0.4,0.2c0.1-0.3,0.4-0.2,0.5-0.5c0,0-0.1,0.1-0.3,0.1c-0.1,0.1-0.3,0.1-0.3,0.1
											c0.1-0.3,0.5-0.9,0.8-0.7c0,0.2-0.2,0.6-0.2,0.7c0.1-0.1,0.3-0.1,0.3-0.1l-0.2,0.2c0.1,0.2,0.4-0.4,0.5,0
											c0.1,0,0.1,0.5,0.2,0.3c0-0.4,0.2-1.6,0.3-1.9c0,0,0.2,0.4,0.3,0.6c0.1,0.3-0.2,0.7-0.2,1c0-0.1,0.1-0.2,0.1-0.2
											c0.1,0.1-0.1,0.3,0.1,0.3c0.1-0.3,0.3,0.1,0.1-0.3c0.1-0.1,0.1,0.1,0.3,0.1c0-0.2,0.2-0.8,0.3-0.9c0,0.1,0,0.2,0,0.3
											c0.3,0,0.4,0.2,0.7,0.2c0,0.1,0.2,0.2,0.1,0.3c0-0.1,0.1-0.2,0.1-0.2c0.2,0.3-0.2,0.1,0,0.4c0-0.2,0.2-0.3,0.3-0.4
											c-0.1-0.3-0.3,0-0.4,0.1c0-0.4,0.1-0.9,0.3-1.1c0.2-0.1,0.1,0.3,0.1,0.2c0.4,0,0.1-0.8,0.5-0.6c0.2,0.2,0.1,0.5,0.2,0.7
											c-0.1,0.1-0.3-0.1-0.4-0.1l0.2,0.1c0,0.1-0.1,0.2-0.2,0.1c0.2,0.2,0.6-0.1,1,0c0-0.1,0.1-0.2,0-0.3l-0.1,0.1
											c-0.1-0.2,0.1-0.3-0.1-0.4c0.1-0.2,0.1-0.5,0.3-0.4l0.2,0.3c0-0.1-0.2-0.1-0.2,0c0-0.2,0.4,0.3,0.3-0.1l-0.2-0.2
											c0-0.2,0-0.6,0.2-0.5c-0.2-0.3,0,0-0.3-0.2c0.3,0.4-0.3,0.1,0,0.5c-0.3-0.4-0.2-0.1-0.5-0.4c0,0.1,0.1,0.2,0,0.2
											c0,0,0,0.1,0,0.1l0,0l0,0c0,0,0,0,0,0c0,0,0.1,0.1,0.1,0.1c0,0.2-0.1,0.3-0.2,0.4c-0.1,0,0-0.1-0.1-0.2l0,0.2
											c-0.1-0.2-0.3-0.3-0.2-0.5l-0.1,0c-0.1-0.1-0.2-0.1-0.3,0c-0.1,0-0.1,0.3-0.1,0.1l-0.2,0.2l0-0.1c-0.2,0-0.4,0.5-0.7,0
											c-0.1,0.1-0.1,0.1-0.3,0.1l0-0.2c-0.1,0.1-0.3-0.2-0.3,0c-0.1-0.5-0.4-0.1-0.6-0.3l0,0.3c-0.1,0-0.2,0-0.4,0.1l0,0.2
											c-0.2,0.2-0.3-0.2-0.5-0.3c0-0.1,0.1,0,0.1,0c-0.1-0.6-0.6,0.2-0.6-0.2c-0.1,0.1-0.1,0-0.1,0c0,0,0,0,0,0c0,0,0,0,0,0
											c0,0,0-0.1,0-0.1c0,0.1,0,0.1,0,0.1c0,0-0.1,0-0.2,0l0.1-0.2c0,0,0,0,0,0c0-0.1-0.1,0.1-0.1,0.3c0,0-0.1,0.1-0.1,0.1
											c0.1-0.4-0.2,0.1-0.1-0.4c-0.1,0.2-0.3,0-0.6,0.3c0,0,0-0.1,0.1-0.1c0-0.1-0.1-0.2-0.2-0.1l0.2-0.3l-0.4,0.3
											c0-0.2,0.1-0.3,0.3-0.5c-0.4,0.2-0.2,0-0.6,0.2l0.1-0.1c-0.1,0-0.3,0.1-0.2-0.1c0.2-0.4-0.5-0.6-0.3-1.1
											c-0.5,0.4,0.2-0.3-0.3,0c0.1-0.1,0.2-0.2,0.3-0.2c-0.2-0.1,0.1-0.3-0.3-0.2c0.1-0.1,0.2,0,0.3-0.1c0,0-0.1,0-0.1,0
											c0.1,0,0.1,0,0.2,0c-0.1-0.1-0.5,0-0.9,0.1c0.2-0.2,0.1-0.2-0.2-0.2c0.1-0.1,0.2-0.2,0.3-0.1c0-0.1,0.1-0.4-0.2-0.4
											c0.1,0,0-0.1,0-0.1c0-0.1,0-0.2,0-0.3l-0.1,0c-0.4-0.1-0.1-0.1-0.1-0.2l0,0c0.3-0.2-0.1-0.1,0.2-0.4l-0.2,0
											c-0.5-0.1,0.3-0.2,0.2-0.4l-0.2,0c-0.1-0.1,0.8,0,0.8,0c0,0,0.1,0,0.1,0.1c0.4-0.1-0.3-0.1-0.3-0.3c0.2,0,0.4,0.2,0.5,0.1
											c0.1,0-0.4-0.5,0-0.5c-0.1,0-0.3-0.1-0.3-0.2c0-0.1,0.6,0,0.3-0.3c0,0,0.1,0,0.1,0c0-0.1,0-0.3-0.1-0.5
											c0.6,0.5,0.1-0.7,0.7-0.1c0,0,0.2-0.2,0.2-0.2l0,0.1c0.2-0.1,0.1-0.3,0.1-0.4c0.1,0,0.1,0.1,0.1,0.1c0.3,0,0.3,0,0.3-0.5
											l0.1,0.2c0-0.2,0.5,0.2,0.6-0.2c0,0,0,0.1,0,0.1c0.2-0.4,0.8,0.5,0.7-0.4l0.1-0.3c-0.3,0,0-0.4-0.2-0.5
											c0.1-0.1,0.3,0.2,0.2,0.3l0,0c0,0.5,0.4,0.1,0.4,0.4c0.5-0.1,1,0.2,1.5,0.2l0-0.4l0.2,0c0,0.1,0,0.3-0.1,0.3
											c0,0.2,0.2-0.2,0.2-0.2c0.2,0.2-0.1,0.4-0.1,0.4l0.1,0l0,0c0.1-0.1,0.1-0.3,0.3-0.3c0.1,0.1,0,0.2,0,0.3c0,0,0,0,0,0
											l0.2,0.1l0-0.3c0.1-0.1,0.2,0.1,0.2-0.3c0,0.5,0.7,0.4,0.7,0.6c0.2-0.2,0.3-0.1,0.5,0c0-0.1,0.1-0.4,0.2-0.3
											c-0.3,0.6,0.1,0.4,0,0.9c0.1-0.3,0.4,0.1,0.5-0.4c0.1,0.1-0.1,0.2-0.1,0.4c0.4-0.1,0.4,0.5,0.6,0.6
											c0.1-0.1,0.1-0.2,0.3-0.3c0,0,0,0.1-0.1,0.2C59.1,84.9,59,85,59,85c0.1,0,0.4-0.3,0.3,0c0-0.1,0.1-0.2,0.2-0.1
											c0.1,0.4,0.3,0.6,0.5,0.8c0.2,0.2,0.3,0.6-0.1,0.9c0.2-0.1,0.2-0.1,0.2,0c0,0,0.2,0,0.3-0.1c0,0-0.1,0.1-0.1,0.2
											c-0.1,0.1-0.1,0.1-0.1,0.1c0.3,0,0,0.3,0.4,0.3L60.4,87c0.4,0.1,0.8-0.2,1.3-0.3c-0.4-0.1,0.6-0.6-0.1-0.7
											c0.1-0.1,0.2,0,0.3-0.1c-0.2,0-0.3-0.1-0.3-0.3l0.1,0c-0.2-0.4-0.1-0.7-0.3-1.2l-0.2,0.2c0-0.1,0-0.2,0-0.3
											c-0.4,0.1,0.1,0.3-0.3,0.4c0.4-0.4-0.4-0.6-0.1-1.1c-0.1-0.1-0.2,0.2-0.3,0.1l0.1-0.1l-0.2,0.1c-0.1-0.1,0-0.3,0.1-0.4
											c0,0,0.1,0,0.1,0c0-0.2-0.3-0.3-0.3-0.3l0.1,0.2c-0.4-0.2-0.8-0.7-1.3-0.7l0,0.1c-0.4,0-0.2-0.3-0.5-0.3l0,0
											c-0.1,0.1-0.2,0.1-0.3,0c0.1-0.1,0-0.3,0.1-0.4c-0.4,0.1-0.2,0.1-0.6,0.4l0-0.2c-0.1,0.1-0.2,0.2-0.3,0.2
											c0.2-0.1,0-0.3,0.2-0.5c-0.2-0.5-0.6,0.2-0.7-0.4c-0.3,0.5,0.2,0.4,0.1,0.5c0,0.2-0.2,0.3-0.3,0.3c-0.1,0,0-0.7-0.3-0.8
											c0,0,0,0,0.1,0c-0.1-0.2-0.2,0.1-0.4-0.1c-0.1,0.3-0.2,0-0.2,0.4l0.3-0.1c-0.2,0.1-0.4,0.5-0.6,0.3c0-0.1,0.1-0.2,0.2-0.2
											c-0.1-0.1-0.1,0.1-0.2-0.1c0.1-0.4,0.3-0.1,0.5-0.3c-0.1-0.2-0.4,0.3-0.2-0.2c-0.2,0.5-0.3-0.1-0.5,0.3l0-0.2
											c0,0-0.1,0.2-0.2,0.1l0.1-0.3c-0.2,0.3-0.3-0.3-0.5-0.1c0.3,0,0.1,0.3,0.2,0.5c-0.4,0.3-0.2-0.6-0.7-0.5
											c0.1,0,0.3,0.1,0.2,0.3c-0.1,0-0.2-0.1-0.3-0.3c-0.3,0.1,0.1,0.2,0,0.4c-0.1-0.3-0.1,0.1-0.3,0.3l0-0.2
											c-0.4-0.1,0,0.5-0.3,0.4l0.1-0.4l-0.1,0.1l0-0.3c-0.1,0.2-0.2,0.2-0.4,0.2c0.1,0.2,0.1,0.4-0.1,0.5
											c-0.1-0.1,0-0.2-0.2-0.2c0-0.2,0-0.4,0.2-0.2c0-0.1,0-0.2,0-0.2c-0.2-0.1-0.3,0-0.4,0.1c0,0,0.1,0,0.1,0l-0.2,0.4
											c-0.1-0.1-0.1-0.2,0-0.2c-0.1,0-0.1,0.2-0.1,0.2c0-0.2-0.1-0.4,0-0.5l-0.2,0.3c0-0.1-0.2-0.2-0.2-0.3
											c-0.2,0-0.3,0.5-0.5,0.5c0,0,0,0.1,0,0.1c-0.2,0-0.5-0.1-0.6,0.3l-0.3-0.2c-0.1,0.2,0.4,0.3,0.2,0.6
											c-0.1,0.2-0.3-0.2-0.4-0.2c0,0.2,0.1,0.6-0.3,0.6C50,82.9,50,82.9,50.1,82.8z M48.6,84.9c0-0.1-0.1-0.2,0-0.2
											C48.8,84.9,48.7,84.9,48.6,84.9z M48.9,88.7c-0.1,0-0.1-0.1,0-0.2C48.9,88.6,48.9,88.6,48.9,88.7z M56.7,90.6
											C56.7,90.6,56.7,90.6,56.7,90.6C56.6,90.5,56.6,90.5,56.7,90.6z M56.8,90.6c0,0,0-0.1,0-0.1
											C56.8,90.6,56.8,90.6,56.8,90.6C56.8,90.7,56.8,90.7,56.8,90.6z M56.3,83.5L56.3,83.5C56.4,83.4,56.3,83.4,56.3,83.5z"/>
										<path id="XMLID_460_" class="st32" d="M48.4,88.4c0,0,0.1,0,0.1-0.1C48.5,88.4,48.5,88.4,48.4,88.4z"/>
										<polygon id="XMLID_459_" class="st32" points="51.4,81.8 51.4,81.8 51.4,81.8 										"/>
										<path id="XMLID_458_" class="st32" d="M54.1,92.9c0,0-0.1-0.1-0.1-0.1C54,92.8,54,92.9,54.1,92.9z"/>
										<path id="XMLID_457_" class="st32" d="M57.5,90L57.5,90c0,0.1,0,0.1,0.1,0.1C57.5,90.1,57.4,90,57.5,90z"/>
										<path id="XMLID_456_" class="st32" d="M59,90.9C59,90.9,59,90.9,59,90.9l0-0.2C58.9,90.8,58.9,90.9,59,90.9z"/>
										<path id="XMLID_455_" class="st32" d="M57.9,90.7c0.1,0.2,0.1,0.1,0.2,0c0,0,0,0,0,0C57.9,90.4,57.9,90.6,57.9,90.7z"/>
										<path id="XMLID_454_" class="st32" d="M58.1,90.7C58.1,90.7,58.1,90.7,58.1,90.7C58.1,90.6,58.1,90.7,58.1,90.7z"/>
										<path id="XMLID_453_" class="st32" d="M57,90.5c0,0-0.1-0.3,0-0.2C56.9,90,56.9,90.6,57,90.5z"/>
										<polygon id="XMLID_452_" class="st32" points="58.2,91.3 58.1,91.1 58.1,91.3 										"/>
										<path id="XMLID_451_" class="st32" d="M57.5,91.4l0.1,0c0,0,0-0.1,0-0.1C57.6,91.3,57.5,91.3,57.5,91.4z"/>
										<path id="XMLID_450_" class="st32" d="M57.7,91.3C57.7,91.3,57.8,91.3,57.7,91.3C57.8,91.2,57.7,91.3,57.7,91.3z"/>
										<polygon id="XMLID_449_" class="st32" points="58.1,91.4 58,91.4 57.9,91.4 										"/>
										<path id="XMLID_448_" class="st32" d="M56.2,91.7L56,91.7c0,0.1,0,0.1,0.1,0.1C56.2,91.8,56.2,91.7,56.2,91.7z"/>
										<path id="XMLID_447_" class="st32" d="M56.7,92.3c-0.1,0-0.1-0.1-0.1-0.2l0.1,0.3L56.7,92.3z"/>
										<path id="XMLID_446_" class="st32" d="M56.3,92.4c0,0.1-0.2,0.3,0,0.2C56.3,92.6,56.4,92.5,56.3,92.4z"/>
										<polygon id="XMLID_445_" class="st32" points="54,92 54,92 54.1,91.5 										"/>
										<path id="XMLID_444_" class="st32" d="M51.5,92.6c0.1,0.2,0.2-0.3,0.3,0c0.1-0.1-0.1-0.2,0-0.3
											C51.6,92.3,51.6,92.2,51.5,92.6z"/>
										<path id="XMLID_443_" class="st32" d="M51.8,92.3C51.8,92.3,51.9,92.2,51.8,92.3C51.9,92.2,51.8,92.3,51.8,92.3z"/>
										<polygon id="XMLID_442_" class="st32" points="59.9,87 59.8,87.1 59.9,87 										"/>
										<path id="XMLID_441_" class="st32" d="M60.3,87.1l-0.3,0L60.3,87.1C60.2,87.2,60.2,87.1,60.3,87.1z"/>
										<path id="XMLID_440_" class="st32" d="M47.8,85L47.8,85c0.2,0.1,0.2,0,0.2,0L47.8,85z"/>
										<polygon id="XMLID_439_" class="st32" points="49.1,83.4 49.1,83.4 49.3,83.6 										"/>
										<path id="XMLID_438_" class="st32" d="M50.1,82c-0.1,0-0.1,0.1-0.2,0.2C50,82,50.3,82.3,50.1,82z"/>
									</g>
								</g>
							</g>
						</g>
					</g>
					<g id="XMLID_63_" class="st30">
						<ellipse id="XMLID_429_" class="st31" cx="80.3" cy="86.9" rx="6" ry="4.8"/>
						<g id="XMLID_335_">
							<g id="XMLID_339_">
								<g id="XMLID_340_">
									<g id="XMLID_341_">
										<path id="XMLID_428_" class="st32" d="M85,87c0,0-0.2,0-0.2,0C84.8,87,85.1,87,85,87z"/>
										<polygon id="XMLID_427_" class="st32" points="85.4,87.6 85.4,87.6 85.6,87.7 										"/>
										<path id="XMLID_426_" class="st32" d="M85.2,88.2c0.4,0.1,0-0.2,0.2-0.3l0.1,0l-0.3-0.1C85.3,87.9,85.4,88.2,85.2,88.2z"
											/>
										<path id="XMLID_425_" class="st32" d="M84.4,88.1C84.5,88.2,84.5,88.2,84.4,88.1C84.4,88.1,84.4,88.1,84.4,88.1
											C84.4,88.1,84.4,88.1,84.4,88.1z"/>
										<path id="XMLID_424_" class="st32" d="M84.4,88.1C84.4,88,84.3,88.1,84.4,88.1L84.4,88.1z"/>
										<path id="XMLID_423_" class="st32" d="M84.4,88.3l-0.1-0.1c-0.1,0-0.1,0-0.2,0C84.2,88.3,84.2,88.3,84.4,88.3z"/>
										<path id="XMLID_422_" class="st32" d="M84.6,88.6L84.6,88.6C84.5,88.5,84.5,88.5,84.6,88.6z"/>
										<path id="XMLID_421_" class="st32" d="M84.5,88.4l0.1,0.1C84.6,88.5,84.7,88.6,84.5,88.4C84.6,88.5,84.5,88.4,84.5,88.4z"
											/>
										<path id="XMLID_420_" class="st32" d="M84.5,88.3c0.1,0,0.2,0,0.2,0.1C84.8,88.3,84.6,88.2,84.5,88.3z"/>
										<path id="XMLID_419_" class="st32" d="M85.6,88.4l0.1,0l-0.1-0.1C85.7,88.3,85.5,88.4,85.6,88.4z"/>
										<path id="XMLID_418_" class="st32" d="M83.9,88.6c0.1,0.1,0.2,0.1,0.3,0.2l0-0.1C84.1,88.7,84,88.7,83.9,88.6z"/>
										<path id="XMLID_417_" class="st32" d="M84.2,88.8l0,0.2C84.3,88.9,84.3,88.8,84.2,88.8z"/>
										<path id="XMLID_416_" class="st32" d="M84.9,88.8c0,0-0.2-0.3-0.2-0.3S84.9,88.8,84.9,88.8L84.9,88.8z"/>
										<polygon id="XMLID_415_" class="st32" points="83.7,88.8 83.6,88.6 83.8,88.9 										"/>
										<path id="XMLID_414_" class="st32" d="M83.6,89c-0.1-0.1-0.2-0.2-0.2-0.3c0,0.1,0,0.2,0.1,0.3
											C83.4,88.9,83.5,88.9,83.6,89z"/>
										<path id="XMLID_413_" class="st32" d="M83.5,89.2c0,0,0-0.1,0-0.2C83.4,89,83.4,89.1,83.5,89.2z"/>
										<path id="XMLID_412_" class="st32" d="M84.1,89c0,0-0.1-0.1-0.2-0.1L84.1,89L84.1,89z"/>
										<path id="XMLID_411_" class="st32" d="M84.1,89L84.1,89C84.1,89,84,89.1,84.1,89C84,89.1,84,89.1,84.1,89z"/>
										<path id="XMLID_410_" class="st32" d="M84.1,89L84.1,89C84.1,89,84.1,89,84.1,89z"/>
										<path id="XMLID_409_" class="st32" d="M84.6,88.9c0.1,0.1,0.1,0.3,0.3,0.3C84.8,89.1,84.7,89.1,84.6,88.9z"/>
										<path id="XMLID_408_" class="st32" d="M84.3,89.2l0.1,0c0,0-0.1-0.1-0.1-0.1L84.3,89.2z"/>
										<polygon id="XMLID_407_" class="st32" points="84.4,89.2 84.3,89.2 84.3,89.2 										"/>
										<path id="XMLID_406_" class="st32" d="M83.7,89.2c0,0.1,0,0.1,0,0.2c0.1,0,0.1,0,0.2-0.1C83.8,89.3,83.8,89.2,83.7,89.2z"
											/>
										<path id="XMLID_405_" class="st32" d="M83.9,89.2L83.9,89.2C83.9,89.2,83.9,89.2,83.9,89.2z"/>
										<polygon id="XMLID_404_" class="st32" points="83.2,89.7 83.3,89.7 83.3,89.7 										"/>
										<path id="XMLID_403_" class="st32" d="M83.9,89.4c0.1,0,0-0.1,0-0.1C83.9,89.3,83.9,89.3,83.9,89.4
											C83.9,89.4,83.9,89.4,83.9,89.4z"/>
										<path id="XMLID_402_" class="st32" d="M83.4,89.3c0,0,0.1,0,0.1,0.1C83.5,89.4,83.4,89.3,83.4,89.3z"/>
										<path id="XMLID_401_" class="st32" d="M83.9,89.1L83.9,89.1C83.8,89.1,83.8,89.1,83.9,89.1z"/>
										<path id="XMLID_400_" class="st32" d="M83.9,89.1c0,0,0,0.1,0,0.1C83.9,89.2,83.9,89.2,83.9,89.1
											C83.9,89.2,83.9,89.1,83.9,89.1z"/>
										<path id="XMLID_399_" class="st32" d="M83.8,91c-0.1-0.2-0.1-0.4,0.2-0.3c0-0.2-0.4-0.7-0.7-1c0,0.1,0.1,0.1,0.1,0.3
											c0.1,0.1,0.3,0.1,0.4,0.3c-0.1,0.2-0.1,0-0.3-0.1c0.2,0.2,0,0.4,0.2,0.7l0.1-0.2C83.7,90.9,83.7,91,83.8,91z"/>
										<path id="XMLID_398_" class="st32" d="M83.4,89.7L83.4,89.7c0,0-0.1-0.1-0.2-0.2c0,0.1,0,0.2,0.1,0.3L83.4,89.7L83.4,89.7
											z"/>
										<path id="XMLID_397_" class="st32" d="M83.6,89.5c0.1,0.2,0.1,0.3,0.3,0.5c0.1-0.1,0-0.2,0-0.3
											C83.7,89.8,83.8,89.6,83.6,89.5C83.6,89.5,83.7,89.4,83.6,89.5c0-0.1,0-0.1-0.1-0.1l0,0l0,0l0,0
											C83.6,89.4,83.6,89.4,83.6,89.5L83.6,89.5C83.6,89.5,83.6,89.5,83.6,89.5C83.5,89.5,83.6,89.5,83.6,89.5l-0.1-0.1l0,0
											l-0.1,0.2C83.5,89.6,83.6,89.6,83.6,89.5z"/>
										<path id="XMLID_396_" class="st32" d="M85.2,89.6C85.1,89.6,85.1,89.6,85.2,89.6C85.1,89.6,85.1,89.6,85.2,89.6z"/>
										<path id="XMLID_395_" class="st32" d="M85,89.6c0,0-0.1-0.1,0-0.1c0.1,0,0.1,0.1,0.1,0.1c0-0.1,0-0.2-0.2-0.2l0,0
											c-0.1,0-0.4-0.1-0.4-0.1C84.7,89.4,84.8,89.5,85,89.6z"/>
										<path id="XMLID_394_" class="st32" d="M84.3,89.7l-0.1,0.2l0.2,0.1l-0.1-0.1C84.5,89.8,84.4,89.7,84.3,89.7z"/>
										<polygon id="XMLID_393_" class="st32" points="83.2,89.6 83.1,89.4 83.2,89.7 										"/>
										<polygon id="XMLID_392_" class="st32" points="83,89.8 82.9,89.6 82.9,89.7 										"/>
										<path id="XMLID_391_" class="st32" d="M74.3,83.5L74.3,83.5C74.3,83.4,74.3,83.5,74.3,83.5z"/>
										<path id="XMLID_390_" class="st32" d="M74,83.9L74,83.9C74,83.9,74,83.9,74,83.9z"/>
										<path id="XMLID_389_" class="st32" d="M77.9,89.9c0-0.2,0.1-0.5,0-0.3L77.9,89.9C77.9,89.8,77.9,89.9,77.9,89.9z"/>
										<path id="XMLID_388_" class="st32" d="M74.4,88L74.4,88c0,0,0.1,0,0.2,0C74.5,88,74.4,88,74.4,88z"/>
										<path id="XMLID_387_" class="st32" d="M73.5,88.2l0.1-0.2C73.5,88.1,73.5,88.1,73.5,88.2z"/>
										<path id="XMLID_386_" class="st32" d="M76.5,81.5l0-0.2C76.3,81.4,76.4,81.4,76.5,81.5z"/>
										<path id="XMLID_385_" class="st32" d="M80.9,90.5c-0.1-0.1-0.1-0.1-0.2-0.1C80.8,90.5,80.9,90.6,80.9,90.5z"/>
										<path id="XMLID_384_" class="st32" d="M76.1,85.1c0,0,0-0.1-0.1-0.1C76,85.1,76,85.1,76.1,85.1z"/>
										<path id="XMLID_383_" class="st32" d="M80.6,90.3C80.6,90.4,80.6,90.4,80.6,90.3c0.1,0,0.1,0,0.2,0
											C80.7,90.2,80.6,90.2,80.6,90.3z"/>
										<path id="XMLID_382_" class="st32" d="M86,83.2C86,83.2,86,83.2,86,83.2C86,83.2,86,83.2,86,83.2z"/>
										<path id="XMLID_381_" class="st32" d="M85.2,86.4C85.2,86.4,85.2,86.4,85.2,86.4C85.2,86.3,85.2,86.4,85.2,86.4z"/>
										<path id="XMLID_380_" class="st32" d="M82.2,90C82.2,90,82.2,90,82.2,90L82.2,90z"/>
										<path id="XMLID_379_" class="st32" d="M82.7,90.8c0,0,0,0.1,0,0.1C82.7,90.8,82.7,90.8,82.7,90.8z"/>
										<path id="XMLID_378_" class="st32" d="M80.1,91.8L80.1,91.8C80.1,91.8,80.1,91.8,80.1,91.8z"/>
										<path id="XMLID_377_" class="st32" d="M82.3,90.1C82.3,90.1,82.2,90,82.3,90.1C82.2,90,82.3,90.1,82.3,90.1z"/>
										<path id="XMLID_376_" class="st32" d="M82.2,90C82.3,90,82.3,90,82.2,90C82.3,89.9,82.3,89.9,82.2,90z"/>
										<path id="XMLID_375_" class="st32" d="M82.1,90C82.2,90,82.2,90,82.1,90C82.2,90,82.2,90,82.1,90C82.2,90,82.2,90,82.1,90
											z"/>
										<path id="XMLID_374_" class="st32" d="M81.1,81.5C81.1,81.5,81.1,81.5,81.1,81.5C81.1,81.4,81.1,81.4,81.1,81.5z"/>
										<polygon id="XMLID_373_" class="st32" points="75.5,91.2 75.5,91.2 75.5,91.2 										"/>
										<path id="XMLID_372_" class="st32" d="M75.2,91.2c0.3-0.1,0.3-0.1,0.3,0l0.3-0.6c0,0-0.2,0.1-0.3,0.3
											C75.3,91.1,75.2,91.2,75.2,91.2z"/>
										<path id="XMLID_365_" class="st32" d="M75.2,82.5l-0.3,0c-0.1-0.4,0.2-0.4-0.2-0.5c0.4,0.6-0.5,0.5,0,1.1l-0.2,0
											c0,0,0-0.1,0-0.1c-0.4-0.1,0.2,0.5,0,0.6c-0.1,0-0.2,0-0.2-0.1l0,0.3c0,0-0.1,0-0.1-0.1L74.1,84l0,0
											c0.1,0.1,0.1,0.3,0.2,0.4c-0.1,0,0-0.1-0.1-0.1l0.1,0.2c-0.2,0-0.3-0.3-0.2-0.4c-0.7-0.2,0.1,0.2-0.5,0.4l0-0.2
											c-0.4-0.1-0.4,0.1-0.7,0.2c0.1,0,0.8-0.1,0.8,0.1c-0.1,0-0.1,0.1,0,0.3c-0.2-0.1-0.2,0-0.3,0.2L73.1,85
											c0,0.2,0.2,0.2,0.3,0.4c-0.1,0.2-0.3,0.1-0.6,0.1c-0.1,0.3,0.5-0.1,0.4,0.3c-0.2,0.2-0.1,0.4,0.1,0.7
											c-0.1,0.1-0.2-0.1-0.3,0l0.3,0.2c0,0-0.1,0-0.1,0c0.1,0.1,0.3,0,0.4,0.2c0.4,0-0.5,0.4-0.1,0.6c-0.1,0.1-0.2,0-0.3,0
											c0.3,0.3,0.2,0.3,0.6,0.4L73.6,88c0.2-0.2,0.5-0.1,0.8,0c0.1-0.1,0.2-0.1,0.2-0.2l0.2,0.1c0,0-0.2,0.1-0.3,0.1
											c0,0,0.1,0,0.1,0c-0.1,0.1-0.3,0.1-0.5,0.1c0.1,0,0.1-0.1,0.2-0.1c-0.2,0-0.4,0-0.6,0.1c0,0,0.1,0,0.1,0.1
											c-0.1,0-0.1,0-0.1,0c0,0,0,0,0.1,0l-0.3,0.2l0.1,0l-0.1,0.4c0.5,0.1,1,0.1,1.3,0.3c-0.3,0.1-0.4,0.2-0.7,0.4
											c0.2-0.3-0.3-0.2-0.3-0.4c0,0.1-0.1,0.2-0.2,0.2c0,0,0.4,0.2,0.5,0.2c-0.2,0.1-0.1,0.2-0.2,0.3c0.4-0.3,0.4,0.1,0.7,0.1
											c-0.1,0.1-0.3,0.2-0.4,0c-0.2,0.4,0.6-0.2,0.5,0.2c0,0,0-0.1-0.1,0c0.2,0,0.2,0.2,0.1,0.3l0,0c0.1,0.3,0.6,0.6,0.9,0.3
											c0,0-0.4,0.4-0.4,0.4c0,0,0.3-0.2,0.7-0.4c0.3-0.2,0.6-0.5,0.6-0.5c-0.3,0.3-0.7,1.1-1,1.1c0,0.1,0.1,0.2,0.3,0.2
											c0-0.1,0.2-0.5,0.3-0.5c-0.1,0.4,0,0.3-0.1,0.7c0-0.1,0.4-0.6,0.4-0.5c-0.1,0.1-0.3,0.5-0.4,0.5c0,0,0.1-0.1,0.3-0.2
											c0.1-0.1,0.3-0.2,0.3-0.2c-0.1,0.1-0.3,0.4-0.3,0.6c0-0.1,0.2,0.1,0.3,0.1l0-0.2c0.2,0.2,0.6-0.6,0.9-0.5
											c-0.1,0.1-0.4,0.7-0.3,0.8c0.2-0.2,0.8-1.2,1.1-1.4l0,0.2l0.2-0.1c-0.2,0.4-0.8,1.2-1.1,1.5c0.1,0.2,0,0.2,0.1,0.2
											c0,0.2-0.2,0.2-0.2,0.2c0,0,0.4,0.3,0.4,0.2c0.1-0.3,0.4-0.2,0.5-0.5c0,0-0.1,0.1-0.3,0.1c-0.1,0.1-0.3,0.1-0.3,0.1
											c0.1-0.3,0.5-0.9,0.8-0.7c0,0.2-0.2,0.6-0.2,0.7c0.1-0.1,0.3-0.1,0.3-0.1l-0.2,0.2c0.1,0.2,0.4-0.4,0.5,0
											c0.1,0,0.1,0.5,0.2,0.3c0-0.4,0.2-1.6,0.3-1.9c0,0,0.2,0.4,0.3,0.6c0.1,0.3-0.2,0.7-0.2,1c0-0.1,0.1-0.2,0.1-0.2
											c0.1,0.1-0.1,0.3,0.1,0.3c0.1-0.3,0.3,0.1,0.1-0.3c0.1-0.1,0.1,0.1,0.3,0.1c0-0.2,0.2-0.8,0.3-0.9c0,0.1,0,0.2,0,0.3
											c0.3,0,0.4,0.2,0.7,0.2c0,0.1,0.2,0.2,0.1,0.3c0-0.1,0.1-0.2,0.1-0.2c0.2,0.3-0.2,0.1,0,0.4c0-0.2,0.2-0.3,0.3-0.4
											c-0.1-0.3-0.3,0-0.4,0.1c0-0.4,0.1-0.9,0.3-1.1c0.2-0.1,0.1,0.3,0.1,0.2c0.4,0,0.1-0.8,0.5-0.6c0.2,0.2,0.1,0.5,0.2,0.7
											c-0.1,0.1-0.3-0.1-0.4-0.1l0.2,0.1c0,0.1-0.1,0.2-0.2,0.1c0.2,0.2,0.6-0.1,1,0c0-0.1,0.1-0.2,0-0.3l-0.1,0.1
											c-0.1-0.2,0.1-0.3-0.1-0.4c0.1-0.2,0.1-0.5,0.3-0.4l0.2,0.3c0-0.1-0.2-0.1-0.2,0c0-0.2,0.4,0.3,0.3-0.1l-0.2-0.2
											c0-0.2,0-0.6,0.2-0.5c-0.2-0.3,0,0-0.3-0.2c0.3,0.4-0.3,0.1,0,0.5c-0.3-0.4-0.2-0.1-0.5-0.4c0,0.1,0.1,0.2,0,0.2
											c0,0,0,0.1,0,0.1l0,0l0,0c0,0,0,0,0,0c0,0,0.1,0.1,0.1,0.1c0,0.2-0.1,0.3-0.2,0.4c-0.1,0,0-0.1-0.1-0.2l0,0.2
											c-0.1-0.2-0.3-0.3-0.2-0.5l-0.1,0c-0.1-0.1-0.2-0.1-0.3,0c-0.1,0-0.1,0.3-0.1,0.1l-0.2,0.2l0-0.1c-0.2,0-0.4,0.5-0.7,0
											c-0.1,0.1-0.1,0.1-0.3,0.1l0-0.2c-0.1,0.1-0.3-0.2-0.3,0c-0.1-0.5-0.4-0.1-0.6-0.3l0,0.3c-0.1,0-0.2,0-0.4,0.1l0,0.2
											c-0.2,0.2-0.3-0.2-0.5-0.3c0-0.1,0.1,0,0.1,0c-0.1-0.6-0.6,0.2-0.6-0.2c-0.1,0.1-0.1,0-0.1,0c0,0,0,0,0,0c0,0,0,0,0,0
											c0,0,0-0.1,0-0.1c0,0.1,0,0.1,0,0.1c0,0-0.1,0-0.2,0l0.1-0.2c0,0,0,0,0,0c0-0.1-0.1,0.1-0.1,0.3c0,0-0.1,0.1-0.1,0.1
											c0.1-0.4-0.2,0.1-0.1-0.4c-0.1,0.2-0.3,0-0.6,0.3c0,0,0-0.1,0.1-0.1c0-0.1-0.1-0.2-0.2-0.1l0.2-0.3L76.5,90
											c0-0.2,0.1-0.3,0.3-0.5c-0.4,0.2-0.2,0-0.6,0.2l0.1-0.1c-0.1,0-0.3,0.1-0.2-0.1c0.2-0.4-0.5-0.6-0.3-1.1
											c-0.5,0.4,0.2-0.3-0.3,0c0.1-0.1,0.2-0.2,0.3-0.2c-0.2-0.1,0.1-0.3-0.3-0.2c0.1-0.1,0.2,0,0.3-0.1c0,0-0.1,0-0.1,0
											c0.1,0,0.1,0,0.2,0c-0.1-0.1-0.5,0-0.9,0.1c0.2-0.2,0.1-0.2-0.2-0.2c0.1-0.1,0.2-0.2,0.3-0.1c0-0.1,0.1-0.4-0.2-0.4
											c0.1,0,0-0.1,0-0.1c0-0.1,0-0.2,0-0.3l-0.1,0c-0.4-0.1-0.1-0.1-0.1-0.2l0,0c0.3-0.2-0.1-0.1,0.2-0.4l-0.2,0
											c-0.5-0.1,0.3-0.2,0.2-0.4l-0.2,0c-0.1-0.1,0.8,0,0.8,0c0,0,0.1,0,0.1,0.1c0.4-0.1-0.3-0.1-0.3-0.3c0.2,0,0.4,0.2,0.5,0.1
											c0.1,0-0.4-0.5,0-0.5c-0.1,0-0.3-0.1-0.3-0.2c0-0.1,0.6,0,0.3-0.3c0,0,0.1,0,0.1,0c0-0.1,0-0.3-0.1-0.5
											c0.6,0.5,0.1-0.7,0.7-0.1c0,0,0.2-0.2,0.2-0.2l0,0.1c0.2-0.1,0.1-0.3,0.1-0.4c0.1,0,0.1,0.1,0.1,0.1c0.3,0,0.3,0,0.3-0.5
											l0.1,0.2c0-0.2,0.5,0.2,0.6-0.2c0,0,0,0.1,0,0.1c0.2-0.4,0.8,0.5,0.7-0.4l0.1-0.3c-0.3,0,0-0.4-0.2-0.5
											c0.1-0.1,0.3,0.2,0.2,0.3l0,0c0,0.5,0.4,0.1,0.4,0.4c0.5-0.1,1,0.2,1.5,0.2l0-0.4l0.2,0c0,0.1,0,0.3-0.1,0.3
											c0,0.2,0.2-0.2,0.2-0.2c0.2,0.2-0.1,0.4-0.1,0.4l0.1,0l0,0c0.1-0.1,0.1-0.3,0.3-0.3c0.1,0.1,0,0.2,0,0.3c0,0,0,0,0,0
											l0.2,0.1l0-0.3c0.1-0.1,0.2,0.1,0.2-0.3c0,0.5,0.7,0.4,0.7,0.6c0.2-0.2,0.3-0.1,0.5,0c0-0.1,0.1-0.4,0.2-0.3
											c-0.3,0.6,0.1,0.4,0,0.9c0.1-0.3,0.4,0.1,0.5-0.4c0.1,0.1-0.1,0.2-0.1,0.4c0.4-0.1,0.4,0.5,0.6,0.6
											c0.1-0.1,0.1-0.2,0.3-0.3c0,0,0,0.1-0.1,0.2c-0.1,0.1-0.1,0.2-0.1,0.2c0.1,0,0.4-0.3,0.3,0c0-0.1,0.1-0.2,0.2-0.1
											c0.1,0.4,0.3,0.6,0.5,0.8c0.2,0.2,0.3,0.6-0.1,0.9c0.2-0.1,0.2-0.1,0.2,0c0,0,0.2,0,0.3-0.1c0,0-0.1,0.1-0.1,0.2
											c-0.1,0.1-0.1,0.1-0.1,0.1c0.3,0,0,0.3,0.4,0.3l-0.1-0.1c0.4,0.1,0.8-0.2,1.3-0.3c-0.4-0.1,0.6-0.6-0.1-0.7
											c0.1-0.1,0.2,0,0.3-0.1c-0.2,0-0.3-0.1-0.3-0.3l0.1,0c-0.2-0.4-0.1-0.7-0.3-1.2l-0.2,0.2c0-0.1,0-0.2,0-0.3
											c-0.4,0.1,0.1,0.3-0.3,0.4c0.4-0.4-0.4-0.6-0.1-1.1c-0.1-0.1-0.2,0.2-0.3,0.1l0.1-0.1l-0.2,0.1c-0.1-0.1,0-0.3,0.1-0.4
											c0,0,0.1,0,0.1,0c0-0.2-0.3-0.3-0.3-0.3l0.1,0.2c-0.4-0.2-0.8-0.7-1.3-0.7l0,0.1c-0.4,0-0.2-0.3-0.5-0.3l0,0
											c-0.1,0.1-0.2,0.1-0.3,0c0.1-0.1,0-0.3,0.1-0.4c-0.4,0.1-0.2,0.1-0.6,0.4l0-0.2c-0.1,0.1-0.2,0.2-0.3,0.2
											c0.2-0.1,0-0.3,0.2-0.5c-0.2-0.5-0.6,0.2-0.7-0.4c-0.3,0.5,0.2,0.4,0.1,0.5c0,0.2-0.2,0.3-0.3,0.3c-0.1,0,0-0.7-0.3-0.8
											c0,0,0,0,0.1,0c-0.1-0.2-0.2,0.1-0.4-0.1c-0.1,0.3-0.2,0-0.2,0.4l0.3-0.1c-0.2,0.1-0.4,0.5-0.6,0.3c0-0.1,0.1-0.2,0.2-0.2
											c-0.1-0.1-0.1,0.1-0.2-0.1c0.1-0.4,0.3-0.1,0.5-0.3c-0.1-0.2-0.4,0.3-0.2-0.2c-0.2,0.5-0.3-0.1-0.5,0.3l0-0.2
											c0,0-0.1,0.2-0.2,0.1l0.1-0.3c-0.2,0.3-0.3-0.3-0.5-0.1c0.3,0,0.1,0.3,0.2,0.5c-0.4,0.3-0.2-0.6-0.7-0.5
											c0.1,0,0.3,0.1,0.2,0.3c-0.1,0-0.2-0.1-0.3-0.3c-0.3,0.1,0.1,0.2,0,0.4c-0.1-0.3-0.1,0.1-0.3,0.3l0-0.2
											c-0.4-0.1,0,0.5-0.3,0.4l0.1-0.4l-0.1,0.1l0-0.3c-0.1,0.2-0.2,0.2-0.4,0.2c0.1,0.2,0.1,0.4-0.1,0.5
											c-0.1-0.1,0-0.2-0.2-0.2c0-0.2,0-0.4,0.2-0.2c0-0.1,0-0.2,0-0.2c-0.2-0.1-0.3,0-0.4,0.1c0,0,0.1,0,0.1,0l-0.2,0.4
											c-0.1-0.1-0.1-0.2,0-0.2c-0.1,0-0.1,0.2-0.1,0.2c0-0.2-0.1-0.4,0-0.5l-0.2,0.3c-0.1-0.1-0.2-0.2-0.2-0.3
											c-0.2,0-0.3,0.5-0.5,0.5c0,0,0,0.1,0,0.1c-0.2,0-0.5-0.1-0.6,0.3l-0.3-0.2c-0.1,0.2,0.4,0.3,0.2,0.6
											c-0.1,0.2-0.3-0.2-0.4-0.2c0,0.2,0.1,0.6-0.3,0.6C75.1,82.6,75.2,82.6,75.2,82.5z M73.7,84.7c0-0.1-0.1-0.2,0-0.2
											C73.9,84.7,73.8,84.6,73.7,84.7z M74,88.5c-0.1,0-0.1-0.1,0-0.2C74.1,88.4,74.1,88.4,74,88.5z M81.8,90.3
											C81.8,90.3,81.8,90.3,81.8,90.3C81.7,90.3,81.7,90.3,81.8,90.3z M82,90.4c0,0,0-0.1,0-0.1C81.9,90.4,81.9,90.4,82,90.4
											C81.9,90.4,81.9,90.5,82,90.4z M81.4,83.2L81.4,83.2C81.5,83.1,81.4,83.2,81.4,83.2z"/>
										<path id="XMLID_364_" class="st32" d="M73.6,88.2c0,0,0.1,0,0.1-0.1C73.6,88.1,73.6,88.1,73.6,88.2z"/>
										<polygon id="XMLID_363_" class="st32" points="76.5,81.6 76.5,81.6 76.5,81.5 										"/>
										<path id="XMLID_362_" class="st32" d="M79.2,92.7c0,0-0.1-0.1-0.1-0.1C79.1,92.6,79.2,92.7,79.2,92.7z"/>
										<path id="XMLID_361_" class="st32" d="M82.6,89.7L82.6,89.7c0,0.1,0,0.1,0.1,0.1C82.6,89.8,82.6,89.7,82.6,89.7z"/>
										<path id="XMLID_360_" class="st32" d="M84.1,90.6C84.1,90.6,84.2,90.6,84.1,90.6l0-0.2C84,90.5,84,90.6,84.1,90.6z"/>
										<path id="XMLID_359_" class="st32" d="M83,90.4c0.1,0.2,0.1,0.1,0.2,0c0,0,0,0,0,0C83.1,90.2,83,90.3,83,90.4z"/>
										<path id="XMLID_358_" class="st32" d="M83.2,90.5C83.2,90.4,83.2,90.4,83.2,90.5C83.2,90.3,83.2,90.4,83.2,90.5z"/>
										<path id="XMLID_357_" class="st32" d="M82.1,90.2c0,0-0.1-0.3,0-0.2C82,89.8,82,90.4,82.1,90.2z"/>
										<polygon id="XMLID_356_" class="st32" points="83.4,91 83.2,90.8 83.3,91 										"/>
										<path id="XMLID_355_" class="st32" d="M82.7,91.1l0.1,0c0,0,0-0.1,0-0.1C82.7,91.1,82.6,91.1,82.7,91.1z"/>
										<path id="XMLID_354_" class="st32" d="M82.8,91.1C82.9,91,82.9,91,82.8,91.1C82.9,91,82.8,91,82.8,91.1z"/>
										<polygon id="XMLID_353_" class="st32" points="83.2,91.2 83.2,91.2 83.1,91.2 										"/>
										<path id="XMLID_352_" class="st32" d="M81.3,91.4l-0.1,0.1c0,0.1,0,0.1,0.1,0.1C81.3,91.5,81.3,91.5,81.3,91.4z"/>
										<path id="XMLID_351_" class="st32" d="M81.9,92c-0.1,0-0.1-0.1-0.1-0.2l0.1,0.3L81.9,92z"/>
										<path id="XMLID_350_" class="st32" d="M81.4,92.2c0,0.1-0.2,0.3,0,0.2C81.4,92.3,81.6,92.2,81.4,92.2z"/>
										<polygon id="XMLID_349_" class="st32" points="79.1,91.8 79.1,91.8 79.2,91.3 										"/>
										<path id="XMLID_348_" class="st32" d="M76.6,92.3c0.1,0.2,0.2-0.3,0.3,0c0.1-0.1-0.1-0.2,0-0.3
											C76.8,92.1,76.7,92,76.6,92.3z"/>
										<path id="XMLID_347_" class="st32" d="M76.9,92C77,92,77,92,76.9,92C77,92,77,92,76.9,92z"/>
										<polygon id="XMLID_346_" class="st32" points="85,86.7 84.9,86.8 85.1,86.7 										"/>
										<path id="XMLID_345_" class="st32" d="M85.4,86.9l-0.3,0L85.4,86.9C85.4,86.9,85.3,86.9,85.4,86.9z"/>
										<path id="XMLID_344_" class="st32" d="M72.9,84.8L72.9,84.8c0.2,0.1,0.2,0,0.2,0L72.9,84.8z"/>
										<polygon id="XMLID_343_" class="st32" points="74.2,83.1 74.2,83.2 74.4,83.3 										"/>
										<path id="XMLID_342_" class="st32" d="M75.2,81.7c-0.1,0-0.1,0.1-0.2,0.2C75.2,81.8,75.5,82,75.2,81.7z"/>
									</g>
								</g>
							</g>
						</g>
					</g>
					<ellipse id="XMLID_62_" class="st15" cx="58.3" cy="79.7" rx="1.5" ry="2.2"/>
					<g id="XMLID_57_">
						<ellipse id="XMLID_61_" class="st15" cx="75.2" cy="79.7" rx="1.5" ry="2.2"/>
						<path id="XMLID_60_" class="st52" d="M71.5,76.5c0,0,6.8-4,10.1,3.7l0.3-0.1c0,0-1.2-5.8-6.2-6.5C75.7,73.7,72.5,74,71.5,76.5
							z"/>
						<path id="XMLID_59_" class="st52" d="M62.4,76.5c0,0-6.8-4-10.1,3.7l-0.3-0.1c0,0,1.2-5.8,6.2-6.5
							C58.3,73.7,61.4,74,62.4,76.5z"/>
						<path id="XMLID_58_" class="st52" d="M62.5,92.2c0,0,4.9,2.4,8.7-1.2c0,0,0.1,3.5-3,3.9C68.2,94.9,63.7,95.4,62.5,92.2z"/>
					</g>
					<path id="XMLID_56_" class="st53" d="M91.5,71.2c0,0,2.1,4.2,2.4,7.3l-3.6-3.6L91.5,71.2z"/>
					<path id="XMLID_53_" class="st53" d="M92.6,74c-0.1-0.4-0.1-0.6-0.1-0.6c0,0,0,0,0,0c-5.7-13.8-15.1-15.3-18.8-15.3
						c0,0,0.1-0.1,0.1-0.1c0,0-9.5-5.3-21.4,1.5c0,0-6,4.2-9.2,10.1c0,0,0,0,0,0s-9.3,15.5-0.4,31.7c0,0,6.1,11.5,21.7,12.5
						c0.9,0.2,3,0.4,5.7,0.2c3.7-0.2,7.1-1.4,9.2-2.8c8.9-5.1,11.6-10.5,11.6-10.5C96.9,90.3,94.9,80.1,92.6,74z M66.8,96.4
						c-2.4-0.1-8.6-0.6-14.7-3.9c3.2,0.7,7.4,0.5,12.4-2.2c0,0,2.2-1.2,2.7-3.4c0,0-3.9-3.2-8.7-0.2c0,0-4.4,3-11,2.4
						c-0.4-2.1-1.4-7.8-1.1-11.9c6.4-0.2,17.6-3.2,26.5-17.5c4.8,9.5,10.5,12.6,14.6,13.6c1,4.6-0.6,14-1,15.8
						c-6.3,0.5-10.5-2.4-10.5-2.4c-4.9-2.9-8.7,0.2-8.7,0.2c0.5,2.2,2.7,3.4,2.7,3.4c4.6,2.5,8.6,2.8,11.7,2.3
						C75.3,95.9,69,96.4,66.8,96.4z"/>
				</g>
				<g id="XMLID_44_">
					<path id="XMLID_51_" class="st54" d="M80.3,43.2c0,9.7-6.2,16-13.6,16s-13.1-6.3-13.1-16c0-9.7,5.9-19.1,13.2-19.1
						S80.3,33.5,80.3,43.2z"/>
					<path id="XMLID_50_" class="st55" d="M70.8,57.7c0,0-13.1-19.7-11.8-29.7c0,0-10.9,12.6-1.1,27.3
						C57.9,55.3,63.9,61.9,70.8,57.7z"/>
					<path id="XMLID_49_" class="st56" d="M92.4,32.9C83,36.4,76.5,47.5,74.3,51.8c-0.9-5-3.1-11.3-7.9-16.6c0,0-6,6.9-7.7,17
						c-1.7-3.5-8.5-16-18.5-19.7c-0.4-0.2,12.1,13.8,11.4,27.9l29.4,0.4C80.2,46.8,92.8,32.8,92.4,32.9z"/>
					<ellipse id="XMLID_48_" class="st56" cx="66.8" cy="21.3" rx="2.7" ry="2.9"/>
					<ellipse id="XMLID_47_" class="st38" cx="66.4" cy="51" rx="2.2" ry="3.6"/>
					<ellipse id="XMLID_46_" class="st57" cx="65.9" cy="51.2" rx="1.1" ry="2.7"/>
					<polygon id="XMLID_45_" class="st54" points="51.6,57.6 51.6,59.1 80.9,59.7 80.9,57.9 51.5,57.4 					"/>
				</g>
			</g>
		</g>
	</g>
</g>
</svg>
